<svg width="24" height="24" viewBox="0 0 24 24" fill="none" xmlns="http://www.w3.org/2000/svg">
<g clip-path="url(#clip0_45_2198)">
<mask id="mask0_45_2198" style="mask-type:luminance" maskUnits="userSpaceOnUse" x="0" y="0" width="24" height="24">
<path d="M24 0H0V24H24V0Z" fill="white"/>
</mask>
<g mask="url(#mask0_45_2198)">
<path d="M10.7939 0.569457C11.4149 -0.189819 12.5851 -0.189819 13.2061 0.569457L14.3016 1.90989C14.6876 2.38236 15.3177 2.58463 15.9097 2.42765L17.5911 1.98084C18.5447 1.72724 19.4922 2.40802 19.5425 3.38316L19.6325 5.10398C19.6646 5.70929 20.0536 6.24063 20.6273 6.458L22.2538 7.07387C23.1753 7.42407 23.5369 8.5245 22.9983 9.34415L22.0493 10.7887C21.7152 11.2974 21.7152 11.9526 22.0493 12.4613L22.9983 13.9058C23.5369 14.7255 23.1753 15.8259 22.2538 16.1761L20.6273 16.792C20.0552 17.0094 19.6646 17.5392 19.6325 18.146L19.5425 19.8668C19.4922 20.842 18.5447 21.5228 17.5911 21.2692L15.9097 20.8224C15.3177 20.6654 14.6861 20.8676 14.3016 21.3401L13.2061 22.6805C12.5851 23.4398 11.4149 23.4398 10.7939 22.6805L9.69841 21.3401C9.3124 20.8676 8.68227 20.6654 8.09028 20.8224L6.40891 21.2692C5.45531 21.5228 4.50783 20.842 4.45748 19.8668L4.36746 18.146C4.33542 17.5392 3.94635 17.0094 3.37267 16.792L1.74623 16.1761C0.824676 15.8274 0.463074 14.7255 1.00166 13.9058L1.95068 12.4613C2.28481 11.9526 2.28481 11.2974 1.95068 10.7887L1.00166 9.34415C0.463074 8.5245 0.824676 7.42407 1.74623 7.07387L3.37267 6.458C3.94483 6.24063 4.33542 5.7108 4.36746 5.10398L4.45748 3.38316C4.50783 2.40802 5.45531 1.72724 6.40891 1.98084L8.09028 2.42765C8.68227 2.58463 9.31392 2.38236 9.69841 1.90989L10.7939 0.569457Z" fill="#FBC02D"/>
<path d="M12 20.25C16.5574 20.25 20.25 16.3879 20.25 11.625C20.25 6.86206 16.5559 3 12 3C7.44414 3 3.75 6.86206 3.75 11.625C3.75 16.3879 7.44414 20.25 12 20.25Z" fill="#FFEE58"/>
<path opacity="0.4" d="M12 20.25C16.5574 20.25 20.25 16.3879 20.25 11.625C20.25 6.86206 16.5559 3 12 3C7.44414 3 3.75 6.86206 3.75 11.625C3.75 16.3879 7.44414 20.25 12 20.25Z" fill="url(#paint0_linear_45_2198)"/>
<path d="M13.5 9.375C13.5 11.6526 11.4862 13.5 9 13.5C6.51382 13.5 4.5 11.654 4.5 9.375C4.5 7.096 6.51382 5.25 9 5.25C11.4862 5.25 13.5 7.096 13.5 9.375Z" fill="url(#paint1_radial_45_2198)"/>
</g>
<path d="M11.9507 23.9993C14.0688 23.9993 15.7864 22.2817 15.7864 20.1636C15.7864 18.0454 14.0688 16.3279 11.9507 16.3279C9.83252 16.3279 8.11499 18.0454 8.11499 20.1636C8.11499 22.2817 9.83252 23.9993 11.9507 23.9993Z" fill="white"/>
<path d="M17.3476 16.6704H11.9508V23.9992H17.3476V16.6704Z" fill="white"/>
<path d="M17.8121 23.9993C21.2318 23.9993 24.003 21.228 24.003 17.8083C24.003 14.3887 21.2318 11.6174 17.8121 11.6174C14.3925 11.6174 11.6212 14.3887 11.6212 17.8083C11.6212 21.228 14.3925 23.9993 17.8121 23.9993Z" fill="white"/>
<path d="M11.9507 23.9993C14.0688 23.9993 15.7864 22.2817 15.7864 20.1636C15.7864 18.0454 14.0688 16.3279 11.9507 16.3279C9.83252 16.3279 8.11499 18.0454 8.11499 20.1636C8.11499 22.2817 9.83252 23.9993 11.9507 23.9993Z" fill="url(#paint2_radial_45_2198)"/>
</g>
<defs>
<linearGradient id="paint0_linear_45_2198" x1="4.83801" y1="4.13747" x2="23.01" y2="21.5179" gradientUnits="userSpaceOnUse">
<stop stop-color="#FFFF00" stop-opacity="0.2"/>
<stop offset="0.13" stop-color="#FDEF0B" stop-opacity="0.4"/>
<stop offset="0.27" stop-color="#FDE015" stop-opacity="0.58"/>
<stop offset="0.41" stop-color="#FCD41E" stop-opacity="0.73"/>
<stop offset="0.55" stop-color="#FBCB24" stop-opacity="0.85"/>
<stop offset="0.68" stop-color="#FBC529" stop-opacity="0.93"/>
<stop offset="0.82" stop-color="#FBC12C" stop-opacity="0.98"/>
<stop offset="0.94" stop-color="#FBC02D"/>
</linearGradient>
<radialGradient id="paint1_radial_45_2198" cx="0" cy="0" r="1" gradientUnits="userSpaceOnUse" gradientTransform="translate(9.02519 9.37644) rotate(90) scale(3.76273 4.10479)">
<stop stop-color="white"/>
<stop offset="1" stop-color="#FFF176" stop-opacity="0"/>
</radialGradient>
<radialGradient id="paint2_radial_45_2198" cx="0" cy="0" r="1" gradientUnits="userSpaceOnUse" gradientTransform="translate(9.71277 22.422) rotate(-41.76) scale(9.32209)">
<stop stop-color="white" stop-opacity="0"/>
<stop offset="0.95" stop-color="#757575" stop-opacity="0.32"/>
</radialGradient>
<clipPath id="clip0_45_2198">
<rect width="24" height="24" fill="white"/>
</clipPath>
</defs>
</svg>
