<svg width="24" height="24" viewBox="0 0 24 24" fill="none" xmlns="http://www.w3.org/2000/svg">
<g clip-path="url(#clip0_45_1789)">
<path d="M15.1795 0C15.5432 0.960795 15.7432 2.00129 15.7432 3.08962C15.7432 7.90953 11.8362 11.8165 7.01631 11.8165C5.78887 11.8165 4.6194 11.5629 3.56006 11.1049C4.80779 14.3989 7.9916 16.7422 11.7232 16.7422C16.5431 16.7422 20.4501 12.8352 20.4501 8.01532C20.4501 4.42285 18.2792 1.33903 15.1795 0Z" fill="#FFEE58"/>
<path opacity="0.4" d="M15.1795 0.0738525C15.5432 1.03465 15.7432 2.07515 15.7432 3.16347C15.7432 7.98339 11.8362 11.8903 7.01631 11.8903C5.78887 11.8903 4.6194 11.6367 3.56006 11.1788C4.80779 14.4727 7.9916 16.816 11.7232 16.816C16.5431 16.816 20.4501 12.9091 20.4501 8.08917C20.4501 4.4967 18.2792 1.41288 15.1795 0.0738525Z" fill="url(#paint0_linear_45_1789)"/>
<path d="M5.62687 17.2605L5.96697 19.492C6.07448 20.1974 5.42281 20.7811 4.73383 20.5957C4.04486 20.4113 3.77168 19.5797 4.2171 19.0224L5.62687 17.2594V17.2605Z" fill="#90CAF9"/>
<path d="M4.2171 19.0235C3.77168 19.5809 4.04486 20.4114 4.73383 20.5968C5.42281 20.7811 6.07448 20.1974 5.96697 19.4931L5.62687 17.2616L4.2171 19.0246V19.0235Z" fill="url(#paint1_linear_45_1789)"/>
<path d="M6.61869 20.6307L6.95879 22.8622C7.0663 23.5677 6.41463 24.1513 5.72565 23.9659C5.03668 23.7816 4.7635 22.95 5.20892 22.3927L6.61869 20.6296V20.6307Z" fill="#90CAF9"/>
<path d="M5.20892 22.3927C4.7635 22.95 5.03668 23.7805 5.72565 23.9659C6.41463 24.1502 7.0663 23.5666 6.95879 22.8622L6.61869 20.6307L5.20892 22.3938V22.3927Z" fill="url(#paint2_linear_45_1789)"/>
<path d="M20.0548 16.4509H18.6538L19.5556 15.5491C19.6818 15.4229 19.6818 15.2189 19.5556 15.0927C19.4294 14.9665 19.2254 14.9665 19.0992 15.0927L17.7399 16.452H17.2001L17.3757 16.2764C17.5018 16.1503 17.5018 15.9462 17.3757 15.8201C17.2495 15.6939 17.0454 15.6939 16.9193 15.8201L16.2873 16.452H14.5671C14.5298 16.2896 14.4662 16.1382 14.3806 16.0022L15.5973 14.7855H16.4914C16.6702 14.7855 16.814 14.6407 16.814 14.463C16.814 14.2852 16.6691 14.1404 16.4914 14.1404H16.2435L16.6253 13.7586H18.5474C18.7262 13.7586 18.8699 13.6138 18.8699 13.4361C18.8699 13.2583 18.7251 13.1135 18.5474 13.1135H17.2714L17.7476 12.6374L18.261 12.124C18.3872 11.9978 18.3872 11.7937 18.261 11.6676C18.1348 11.5414 17.9308 11.5414 17.8046 11.6676L17.2912 12.181L16.815 12.6571V11.3812C16.815 11.2024 16.6702 11.0587 16.4925 11.0587C16.3148 11.0587 16.17 11.2035 16.17 11.3812V13.3033L15.7882 13.6851V13.4372C15.7882 13.2583 15.6434 13.1146 15.4656 13.1146C15.2879 13.1146 15.1431 13.2594 15.1431 13.4372V14.3313L13.9264 15.548C13.7904 15.4624 13.639 15.3977 13.4766 15.3615V13.6412L14.1085 13.0093C14.2347 12.8831 14.2347 12.6791 14.1085 12.5529C13.9824 12.4267 13.7783 12.4267 13.6521 12.5529L13.4766 12.7285V12.1887L14.8359 10.8294C14.9621 10.7032 14.9621 10.4992 14.8359 10.373C14.7097 10.2468 14.5057 10.2468 14.3795 10.373L13.4777 11.2748V9.87382C13.4777 9.69499 13.3329 9.55127 13.1551 9.55127C12.9774 9.55127 12.8326 9.69609 12.8326 9.87382V11.2748L11.9308 10.373C11.8046 10.2468 11.6006 10.2468 11.4744 10.373C11.3482 10.4992 11.3482 10.7032 11.4744 10.8294L12.8337 12.1887V12.7285L12.6582 12.5529C12.532 12.4267 12.3279 12.4267 12.2018 12.5529C12.0756 12.6791 12.0756 12.8831 12.2018 13.0093L12.8337 13.6412V15.3615C12.6713 15.3988 12.5199 15.4624 12.3839 15.548L11.1672 14.3313V13.4372C11.1672 13.2583 11.0224 13.1146 10.8447 13.1146C10.6669 13.1146 10.5221 13.2594 10.5221 13.4372V13.6851L10.1403 13.3033V11.3812C10.1403 11.2024 9.99552 11.0587 9.81779 11.0587C9.64006 11.0587 9.49524 11.2035 9.49524 11.3812V12.6571L9.01911 12.181L8.50567 11.6676C8.3795 11.5414 8.17544 11.5414 8.04928 11.6676C7.92311 11.7937 7.92311 11.9978 8.04928 12.124L8.56271 12.6374L9.03885 13.1135H7.76293C7.58411 13.1135 7.44039 13.2583 7.44039 13.4361C7.44039 13.6138 7.58521 13.7586 7.76293 13.7586H9.68504L10.0668 14.1404H9.81889C9.64006 14.1404 9.49634 14.2852 9.49634 14.463C9.49634 14.6407 9.64116 14.7855 9.81889 14.7855H10.713L11.9297 16.0022C11.8441 16.1382 11.7794 16.2896 11.7432 16.452H10.0229L9.39102 15.8201C9.26485 15.6939 9.0608 15.6939 8.93463 15.8201C8.80846 15.9462 8.80846 16.1503 8.93463 16.2764L9.11016 16.452H8.57039L7.2111 15.0927C7.08493 14.9665 6.88087 14.9665 6.75471 15.0927C6.62854 15.2189 6.62854 15.4229 6.75471 15.5491L7.65652 16.4509H6.25553C6.0767 16.4509 5.93298 16.5957 5.93298 16.7734C5.93298 16.9512 6.0778 17.096 6.25553 17.096H7.65652L6.75471 17.9978C6.62854 18.124 6.62854 18.328 6.75471 18.4542C6.81724 18.5178 6.90062 18.5485 6.9829 18.5485C7.06518 18.5485 7.14856 18.5167 7.2111 18.4542L8.57039 17.0949H9.11016L8.93463 17.2704C8.80846 17.3966 8.80846 17.6006 8.93463 17.7268C8.99716 17.7904 9.08054 17.8212 9.16282 17.8212C9.24511 17.8212 9.32849 17.7893 9.39102 17.7268L10.0229 17.0949H11.7432C11.7805 17.2573 11.8441 17.4086 11.9297 17.5447L10.713 18.7614H9.81889C9.64006 18.7614 9.49634 18.9062 9.49634 19.0839C9.49634 19.2616 9.64116 19.4065 9.81889 19.4065H10.0668L9.68504 19.7882H7.76293C7.58411 19.7882 7.44039 19.9331 7.44039 20.1108C7.44039 20.2885 7.58521 20.4333 7.76293 20.4333H9.03885L8.56271 20.9095L8.04928 21.4229C7.92311 21.5491 7.92311 21.7531 8.04928 21.8793C8.11181 21.9429 8.19519 21.9737 8.27747 21.9737C8.35975 21.9737 8.44313 21.9418 8.50567 21.8793L9.01911 21.3659L9.49524 20.8897V22.1656C9.49524 22.3445 9.64006 22.4882 9.81779 22.4882C9.99552 22.4882 10.1403 22.3434 10.1403 22.1656V20.2435L10.5221 19.8617V20.1097C10.5221 20.2885 10.6669 20.4322 10.8447 20.4322C11.0224 20.4322 11.1672 20.2874 11.1672 20.1097V19.2156L12.3839 17.9989C12.5199 18.0845 12.6713 18.1492 12.8337 18.1854V19.9056L12.2018 20.5376C12.0756 20.6637 12.0756 20.8678 12.2018 20.9939C12.3279 21.1201 12.532 21.1201 12.6582 20.9939L12.8337 20.8184V21.3582L11.4744 22.7175C11.3482 22.8436 11.3482 23.0477 11.4744 23.1739C11.6006 23.3 11.8046 23.3 11.9308 23.1739L12.8326 22.2721V23.673C12.8326 23.8519 12.9774 23.9956 13.1551 23.9956C13.3329 23.9956 13.4777 23.8508 13.4777 23.673V22.2721L14.3795 23.1739C14.442 23.2375 14.5254 23.2682 14.6077 23.2682C14.69 23.2682 14.7734 23.2364 14.8359 23.1739C14.9621 23.0477 14.9621 22.8436 14.8359 22.7175L13.4766 21.3582V20.8184L13.6521 20.9939C13.7147 21.0576 13.798 21.0883 13.8803 21.0883C13.9626 21.0883 14.046 21.0565 14.1085 20.9939C14.2347 20.8678 14.2347 20.6637 14.1085 20.5376L13.4766 19.9056V18.1854C13.639 18.1481 13.7904 18.0845 13.9264 17.9989L15.1431 19.2156V20.1097C15.1431 20.2885 15.2879 20.4322 15.4656 20.4322C15.6434 20.4322 15.7882 20.2874 15.7882 20.1097V19.8617L16.17 20.2435V22.1656C16.17 22.3445 16.3148 22.4882 16.4925 22.4882C16.6702 22.4882 16.815 22.3434 16.815 22.1656V20.8897L17.2912 21.3659L17.8046 21.8793C17.8672 21.9429 17.9505 21.9737 18.0328 21.9737C18.1151 21.9737 18.1985 21.9418 18.261 21.8793C18.3872 21.7531 18.3872 21.5491 18.261 21.4229L17.7476 20.9095L17.2714 20.4333H18.5474C18.7262 20.4333 18.8699 20.2885 18.8699 20.1108C18.8699 19.9331 18.7251 19.7882 18.5474 19.7882H16.6253L16.2435 19.4065H16.4914C16.6702 19.4065 16.814 19.2616 16.814 19.0839C16.814 18.9062 16.6691 18.7614 16.4914 18.7614H15.5973L14.3806 17.5447C14.4662 17.4086 14.5309 17.2573 14.5671 17.0949H16.2873L16.9193 17.7268C16.9818 17.7904 17.0652 17.8212 17.1475 17.8212C17.2297 17.8212 17.3131 17.7893 17.3757 17.7268C17.5018 17.6006 17.5018 17.3966 17.3757 17.2704L17.2001 17.0949H17.7399L19.0992 18.4542C19.1617 18.5178 19.2451 18.5485 19.3274 18.5485C19.4097 18.5485 19.493 18.5167 19.5556 18.4542C19.6818 18.328 19.6818 18.124 19.5556 17.9978L18.6538 17.096H20.0548C20.2336 17.096 20.3773 16.9512 20.3773 16.7734C20.3773 16.5957 20.2325 16.4509 20.0548 16.4509Z" fill="white"/>
<path d="M20.0548 16.4509H18.6538L19.5556 15.5491C19.6818 15.4229 19.6818 15.2189 19.5556 15.0927C19.4294 14.9665 19.2254 14.9665 19.0992 15.0927L17.7399 16.452H17.2001L17.3757 16.2764C17.5018 16.1503 17.5018 15.9462 17.3757 15.8201C17.2495 15.6939 17.0454 15.6939 16.9193 15.8201L16.2873 16.452H14.5671C14.5298 16.2896 14.4662 16.1382 14.3806 16.0022L15.5973 14.7855H16.4914C16.6702 14.7855 16.814 14.6407 16.814 14.463C16.814 14.2852 16.6691 14.1404 16.4914 14.1404H16.2435L16.6253 13.7586H18.5474C18.7262 13.7586 18.8699 13.6138 18.8699 13.4361C18.8699 13.2583 18.7251 13.1135 18.5474 13.1135H17.2714L17.7476 12.6374L18.261 12.124C18.3872 11.9978 18.3872 11.7937 18.261 11.6676C18.1348 11.5414 17.9308 11.5414 17.8046 11.6676L17.2912 12.181L16.815 12.6571V11.3812C16.815 11.2024 16.6702 11.0587 16.4925 11.0587C16.3148 11.0587 16.17 11.2035 16.17 11.3812V13.3033L15.7882 13.6851V13.4372C15.7882 13.2583 15.6434 13.1146 15.4656 13.1146C15.2879 13.1146 15.1431 13.2594 15.1431 13.4372V14.3313L13.9264 15.548C13.7904 15.4624 13.639 15.3977 13.4766 15.3615V13.6412L14.1085 13.0093C14.2347 12.8831 14.2347 12.6791 14.1085 12.5529C13.9824 12.4267 13.7783 12.4267 13.6521 12.5529L13.4766 12.7285V12.1887L14.8359 10.8294C14.9621 10.7032 14.9621 10.4992 14.8359 10.373C14.7097 10.2468 14.5057 10.2468 14.3795 10.373L13.4777 11.2748V9.87382C13.4777 9.69499 13.3329 9.55127 13.1551 9.55127C12.9774 9.55127 12.8326 9.69609 12.8326 9.87382V11.2748L11.9308 10.373C11.8046 10.2468 11.6006 10.2468 11.4744 10.373C11.3482 10.4992 11.3482 10.7032 11.4744 10.8294L12.8337 12.1887V12.7285L12.6582 12.5529C12.532 12.4267 12.3279 12.4267 12.2018 12.5529C12.0756 12.6791 12.0756 12.8831 12.2018 13.0093L12.8337 13.6412V15.3615C12.6713 15.3988 12.5199 15.4624 12.3839 15.548L11.1672 14.3313V13.4372C11.1672 13.2583 11.0224 13.1146 10.8447 13.1146C10.6669 13.1146 10.5221 13.2594 10.5221 13.4372V13.6851L10.1403 13.3033V11.3812C10.1403 11.2024 9.99552 11.0587 9.81779 11.0587C9.64006 11.0587 9.49524 11.2035 9.49524 11.3812V12.6571L9.01911 12.181L8.50567 11.6676C8.3795 11.5414 8.17544 11.5414 8.04928 11.6676C7.92311 11.7937 7.92311 11.9978 8.04928 12.124L8.56271 12.6374L9.03885 13.1135H7.76293C7.58411 13.1135 7.44039 13.2583 7.44039 13.4361C7.44039 13.6138 7.58521 13.7586 7.76293 13.7586H9.68504L10.0668 14.1404H9.81889C9.64006 14.1404 9.49634 14.2852 9.49634 14.463C9.49634 14.6407 9.64116 14.7855 9.81889 14.7855H10.713L11.9297 16.0022C11.8441 16.1382 11.7794 16.2896 11.7432 16.452H10.0229L9.39102 15.8201C9.26485 15.6939 9.0608 15.6939 8.93463 15.8201C8.80846 15.9462 8.80846 16.1503 8.93463 16.2764L9.11016 16.452H8.57039L7.2111 15.0927C7.08493 14.9665 6.88087 14.9665 6.75471 15.0927C6.62854 15.2189 6.62854 15.4229 6.75471 15.5491L7.65652 16.4509H6.25553C6.0767 16.4509 5.93298 16.5957 5.93298 16.7734C5.93298 16.9512 6.0778 17.096 6.25553 17.096H7.65652L6.75471 17.9978C6.62854 18.124 6.62854 18.328 6.75471 18.4542C6.81724 18.5178 6.90062 18.5485 6.9829 18.5485C7.06518 18.5485 7.14856 18.5167 7.2111 18.4542L8.57039 17.0949H9.11016L8.93463 17.2704C8.80846 17.3966 8.80846 17.6006 8.93463 17.7268C8.99716 17.7904 9.08054 17.8212 9.16282 17.8212C9.24511 17.8212 9.32849 17.7893 9.39102 17.7268L10.0229 17.0949H11.7432C11.7805 17.2573 11.8441 17.4086 11.9297 17.5447L10.713 18.7614H9.81889C9.64006 18.7614 9.49634 18.9062 9.49634 19.0839C9.49634 19.2616 9.64116 19.4065 9.81889 19.4065H10.0668L9.68504 19.7882H7.76293C7.58411 19.7882 7.44039 19.9331 7.44039 20.1108C7.44039 20.2885 7.58521 20.4333 7.76293 20.4333H9.03885L8.56271 20.9095L8.04928 21.4229C7.92311 21.5491 7.92311 21.7531 8.04928 21.8793C8.11181 21.9429 8.19519 21.9737 8.27747 21.9737C8.35975 21.9737 8.44313 21.9418 8.50567 21.8793L9.01911 21.3659L9.49524 20.8897V22.1656C9.49524 22.3445 9.64006 22.4882 9.81779 22.4882C9.99552 22.4882 10.1403 22.3434 10.1403 22.1656V20.2435L10.5221 19.8617V20.1097C10.5221 20.2885 10.6669 20.4322 10.8447 20.4322C11.0224 20.4322 11.1672 20.2874 11.1672 20.1097V19.2156L12.3839 17.9989C12.5199 18.0845 12.6713 18.1492 12.8337 18.1854V19.9056L12.2018 20.5376C12.0756 20.6637 12.0756 20.8678 12.2018 20.9939C12.3279 21.1201 12.532 21.1201 12.6582 20.9939L12.8337 20.8184V21.3582L11.4744 22.7175C11.3482 22.8436 11.3482 23.0477 11.4744 23.1739C11.6006 23.3 11.8046 23.3 11.9308 23.1739L12.8326 22.2721V23.673C12.8326 23.8519 12.9774 23.9956 13.1551 23.9956C13.3329 23.9956 13.4777 23.8508 13.4777 23.673V22.2721L14.3795 23.1739C14.442 23.2375 14.5254 23.2682 14.6077 23.2682C14.69 23.2682 14.7734 23.2364 14.8359 23.1739C14.9621 23.0477 14.9621 22.8436 14.8359 22.7175L13.4766 21.3582V20.8184L13.6521 20.9939C13.7147 21.0576 13.798 21.0883 13.8803 21.0883C13.9626 21.0883 14.046 21.0565 14.1085 20.9939C14.2347 20.8678 14.2347 20.6637 14.1085 20.5376L13.4766 19.9056V18.1854C13.639 18.1481 13.7904 18.0845 13.9264 17.9989L15.1431 19.2156V20.1097C15.1431 20.2885 15.2879 20.4322 15.4656 20.4322C15.6434 20.4322 15.7882 20.2874 15.7882 20.1097V19.8617L16.17 20.2435V22.1656C16.17 22.3445 16.3148 22.4882 16.4925 22.4882C16.6702 22.4882 16.815 22.3434 16.815 22.1656V20.8897L17.2912 21.3659L17.8046 21.8793C17.8672 21.9429 17.9505 21.9737 18.0328 21.9737C18.1151 21.9737 18.1985 21.9418 18.261 21.8793C18.3872 21.7531 18.3872 21.5491 18.261 21.4229L17.7476 20.9095L17.2714 20.4333H18.5474C18.7262 20.4333 18.8699 20.2885 18.8699 20.1108C18.8699 19.9331 18.7251 19.7882 18.5474 19.7882H16.6253L16.2435 19.4065H16.4914C16.6702 19.4065 16.814 19.2616 16.814 19.0839C16.814 18.9062 16.6691 18.7614 16.4914 18.7614H15.5973L14.3806 17.5447C14.4662 17.4086 14.5309 17.2573 14.5671 17.0949H16.2873L16.9193 17.7268C16.9818 17.7904 17.0652 17.8212 17.1475 17.8212C17.2297 17.8212 17.3131 17.7893 17.3757 17.7268C17.5018 17.6006 17.5018 17.3966 17.3757 17.2704L17.2001 17.0949H17.7399L19.0992 18.4542C19.1617 18.5178 19.2451 18.5485 19.3274 18.5485C19.4097 18.5485 19.493 18.5167 19.5556 18.4542C19.6818 18.328 19.6818 18.124 19.5556 17.9978L18.6538 17.096H20.0548C20.2336 17.096 20.3773 16.9512 20.3773 16.7734C20.3773 16.5957 20.2325 16.4509 20.0548 16.4509Z" fill="#90CAF9"/>
<path d="M20.0548 16.4509H18.6538L19.5556 15.5491C19.6818 15.4229 19.6818 15.2189 19.5556 15.0927C19.4294 14.9665 19.2254 14.9665 19.0992 15.0927L17.7399 16.452H17.2001L17.3757 16.2764C17.5018 16.1503 17.5018 15.9462 17.3757 15.8201C17.2495 15.6939 17.0454 15.6939 16.9193 15.8201L16.2873 16.452H14.5671C14.5298 16.2896 14.4662 16.1382 14.3806 16.0022L15.5973 14.7855H16.4914C16.6702 14.7855 16.814 14.6407 16.814 14.463C16.814 14.2852 16.6691 14.1404 16.4914 14.1404H16.2435L16.6253 13.7586H18.5474C18.7262 13.7586 18.8699 13.6138 18.8699 13.4361C18.8699 13.2583 18.7251 13.1135 18.5474 13.1135H17.2714L17.7476 12.6374L18.261 12.124C18.3872 11.9978 18.3872 11.7937 18.261 11.6676C18.1348 11.5414 17.9308 11.5414 17.8046 11.6676L17.2912 12.181L16.815 12.6571V11.3812C16.815 11.2024 16.6702 11.0587 16.4925 11.0587C16.3148 11.0587 16.17 11.2035 16.17 11.3812V13.3033L15.7882 13.6851V13.4372C15.7882 13.2583 15.6434 13.1146 15.4656 13.1146C15.2879 13.1146 15.1431 13.2594 15.1431 13.4372V14.3313L13.9264 15.548C13.7904 15.4624 13.639 15.3977 13.4766 15.3615V13.6412L14.1085 13.0093C14.2347 12.8831 14.2347 12.6791 14.1085 12.5529C13.9824 12.4267 13.7783 12.4267 13.6521 12.5529L13.4766 12.7285V12.1887L14.8359 10.8294C14.9621 10.7032 14.9621 10.4992 14.8359 10.373C14.7097 10.2468 14.5057 10.2468 14.3795 10.373L13.4777 11.2748V9.87382C13.4777 9.69499 13.3329 9.55127 13.1551 9.55127C12.9774 9.55127 12.8326 9.69609 12.8326 9.87382V11.2748L11.9308 10.373C11.8046 10.2468 11.6006 10.2468 11.4744 10.373C11.3482 10.4992 11.3482 10.7032 11.4744 10.8294L12.8337 12.1887V12.7285L12.6582 12.5529C12.532 12.4267 12.3279 12.4267 12.2018 12.5529C12.0756 12.6791 12.0756 12.8831 12.2018 13.0093L12.8337 13.6412V15.3615C12.6713 15.3988 12.5199 15.4624 12.3839 15.548L11.1672 14.3313V13.4372C11.1672 13.2583 11.0224 13.1146 10.8447 13.1146C10.6669 13.1146 10.5221 13.2594 10.5221 13.4372V13.6851L10.1403 13.3033V11.3812C10.1403 11.2024 9.99552 11.0587 9.81779 11.0587C9.64006 11.0587 9.49524 11.2035 9.49524 11.3812V12.6571L9.01911 12.181L8.50567 11.6676C8.3795 11.5414 8.17544 11.5414 8.04928 11.6676C7.92311 11.7937 7.92311 11.9978 8.04928 12.124L8.56271 12.6374L9.03885 13.1135H7.76293C7.58411 13.1135 7.44039 13.2583 7.44039 13.4361C7.44039 13.6138 7.58521 13.7586 7.76293 13.7586H9.68504L10.0668 14.1404H9.81889C9.64006 14.1404 9.49634 14.2852 9.49634 14.463C9.49634 14.6407 9.64116 14.7855 9.81889 14.7855H10.713L11.9297 16.0022C11.8441 16.1382 11.7794 16.2896 11.7432 16.452H10.0229L9.39102 15.8201C9.26485 15.6939 9.0608 15.6939 8.93463 15.8201C8.80846 15.9462 8.80846 16.1503 8.93463 16.2764L9.11016 16.452H8.57039L7.2111 15.0927C7.08493 14.9665 6.88087 14.9665 6.75471 15.0927C6.62854 15.2189 6.62854 15.4229 6.75471 15.5491L7.65652 16.4509H6.25553C6.0767 16.4509 5.93298 16.5957 5.93298 16.7734C5.93298 16.9512 6.0778 17.096 6.25553 17.096H7.65652L6.75471 17.9978C6.62854 18.124 6.62854 18.328 6.75471 18.4542C6.81724 18.5178 6.90062 18.5485 6.9829 18.5485C7.06518 18.5485 7.14856 18.5167 7.2111 18.4542L8.57039 17.0949H9.11016L8.93463 17.2704C8.80846 17.3966 8.80846 17.6006 8.93463 17.7268C8.99716 17.7904 9.08054 17.8212 9.16282 17.8212C9.24511 17.8212 9.32849 17.7893 9.39102 17.7268L10.0229 17.0949H11.7432C11.7805 17.2573 11.8441 17.4086 11.9297 17.5447L10.713 18.7614H9.81889C9.64006 18.7614 9.49634 18.9062 9.49634 19.0839C9.49634 19.2616 9.64116 19.4065 9.81889 19.4065H10.0668L9.68504 19.7882H7.76293C7.58411 19.7882 7.44039 19.9331 7.44039 20.1108C7.44039 20.2885 7.58521 20.4333 7.76293 20.4333H9.03885L8.56271 20.9095L8.04928 21.4229C7.92311 21.5491 7.92311 21.7531 8.04928 21.8793C8.11181 21.9429 8.19519 21.9737 8.27747 21.9737C8.35975 21.9737 8.44313 21.9418 8.50567 21.8793L9.01911 21.3659L9.49524 20.8897V22.1656C9.49524 22.3445 9.64006 22.4882 9.81779 22.4882C9.99552 22.4882 10.1403 22.3434 10.1403 22.1656V20.2435L10.5221 19.8617V20.1097C10.5221 20.2885 10.6669 20.4322 10.8447 20.4322C11.0224 20.4322 11.1672 20.2874 11.1672 20.1097V19.2156L12.3839 17.9989C12.5199 18.0845 12.6713 18.1492 12.8337 18.1854V19.9056L12.2018 20.5376C12.0756 20.6637 12.0756 20.8678 12.2018 20.9939C12.3279 21.1201 12.532 21.1201 12.6582 20.9939L12.8337 20.8184V21.3582L11.4744 22.7175C11.3482 22.8436 11.3482 23.0477 11.4744 23.1739C11.6006 23.3 11.8046 23.3 11.9308 23.1739L12.8326 22.2721V23.673C12.8326 23.8519 12.9774 23.9956 13.1551 23.9956C13.3329 23.9956 13.4777 23.8508 13.4777 23.673V22.2721L14.3795 23.1739C14.442 23.2375 14.5254 23.2682 14.6077 23.2682C14.69 23.2682 14.7734 23.2364 14.8359 23.1739C14.9621 23.0477 14.9621 22.8436 14.8359 22.7175L13.4766 21.3582V20.8184L13.6521 20.9939C13.7147 21.0576 13.798 21.0883 13.8803 21.0883C13.9626 21.0883 14.046 21.0565 14.1085 20.9939C14.2347 20.8678 14.2347 20.6637 14.1085 20.5376L13.4766 19.9056V18.1854C13.639 18.1481 13.7904 18.0845 13.9264 17.9989L15.1431 19.2156V20.1097C15.1431 20.2885 15.2879 20.4322 15.4656 20.4322C15.6434 20.4322 15.7882 20.2874 15.7882 20.1097V19.8617L16.17 20.2435V22.1656C16.17 22.3445 16.3148 22.4882 16.4925 22.4882C16.6702 22.4882 16.815 22.3434 16.815 22.1656V20.8897L17.2912 21.3659L17.8046 21.8793C17.8672 21.9429 17.9505 21.9737 18.0328 21.9737C18.1151 21.9737 18.1985 21.9418 18.261 21.8793C18.3872 21.7531 18.3872 21.5491 18.261 21.4229L17.7476 20.9095L17.2714 20.4333H18.5474C18.7262 20.4333 18.8699 20.2885 18.8699 20.1108C18.8699 19.9331 18.7251 19.7882 18.5474 19.7882H16.6253L16.2435 19.4065H16.4914C16.6702 19.4065 16.814 19.2616 16.814 19.0839C16.814 18.9062 16.6691 18.7614 16.4914 18.7614H15.5973L14.3806 17.5447C14.4662 17.4086 14.5309 17.2573 14.5671 17.0949H16.2873L16.9193 17.7268C16.9818 17.7904 17.0652 17.8212 17.1475 17.8212C17.2297 17.8212 17.3131 17.7893 17.3757 17.7268C17.5018 17.6006 17.5018 17.3966 17.3757 17.2704L17.2001 17.0949H17.7399L19.0992 18.4542C19.1617 18.5178 19.2451 18.5485 19.3274 18.5485C19.4097 18.5485 19.493 18.5167 19.5556 18.4542C19.6818 18.328 19.6818 18.124 19.5556 17.9978L18.6538 17.096H20.0548C20.2336 17.096 20.3773 16.9512 20.3773 16.7734C20.3773 16.5957 20.2325 16.4509 20.0548 16.4509Z" fill="url(#paint3_linear_45_1789)"/>
</g>
<defs>
<linearGradient id="paint0_linear_45_1789" x1="3.56006" y1="8.44422" x2="20.4501" y2="8.44422" gradientUnits="userSpaceOnUse">
<stop stop-color="#FFFF00" stop-opacity="0.2"/>
<stop offset="0.13" stop-color="#FDEF0B" stop-opacity="0.4"/>
<stop offset="0.27" stop-color="#FDE015" stop-opacity="0.58"/>
<stop offset="0.41" stop-color="#FCD41E" stop-opacity="0.73"/>
<stop offset="0.55" stop-color="#FBCB24" stop-opacity="0.85"/>
<stop offset="0.68" stop-color="#FBC529" stop-opacity="0.93"/>
<stop offset="0.82" stop-color="#FBC12C" stop-opacity="0.98"/>
<stop offset="0.94" stop-color="#FBC02D"/>
</linearGradient>
<linearGradient id="paint1_linear_45_1789" x1="3.85506" y1="22.0998" x2="6.93021" y2="15.4316" gradientUnits="userSpaceOnUse">
<stop stop-color="#3F51B5" stop-opacity="0.4"/>
<stop offset="1" stop-color="#90CAF9" stop-opacity="0"/>
</linearGradient>
<linearGradient id="paint2_linear_45_1789" x1="4.84688" y1="25.47" x2="7.92203" y2="18.8019" gradientUnits="userSpaceOnUse">
<stop stop-color="#3F51B5" stop-opacity="0.4"/>
<stop offset="1" stop-color="#90CAF9" stop-opacity="0"/>
</linearGradient>
<linearGradient id="paint3_linear_45_1789" x1="7.92421" y1="27.2057" x2="18.7756" y2="5.54798" gradientUnits="userSpaceOnUse">
<stop offset="0.17" stop-color="#3F51B5" stop-opacity="0.4"/>
<stop offset="1" stop-color="#90CAF9" stop-opacity="0"/>
</linearGradient>
<clipPath id="clip0_45_1789">
<rect width="24" height="24" fill="white"/>
</clipPath>
</defs>
</svg>
