<svg width="24" height="24" viewBox="0 0 24 24" fill="none" xmlns="http://www.w3.org/2000/svg">
<path d="M15.1795 0C15.5432 0.960795 15.7432 2.00129 15.7432 3.08962C15.7432 7.90953 11.8362 11.8165 7.01631 11.8165C5.78887 11.8165 4.6194 11.5629 3.56006 11.1049C4.80779 14.3989 7.9916 16.7422 11.7232 16.7422C16.5431 16.7422 20.4501 12.8352 20.4501 8.01532C20.4501 4.42285 18.2792 1.33903 15.1795 0Z" fill="#FFEE58"/>
<path opacity="0.4" d="M15.1795 0.0738525C15.5432 1.03465 15.7432 2.07515 15.7432 3.16347C15.7432 7.98339 11.8362 11.8903 7.01631 11.8903C5.78887 11.8903 4.6194 11.6367 3.56006 11.1788C4.80779 14.4727 7.9916 16.816 11.7232 16.816C16.5431 16.816 20.4501 12.9091 20.4501 8.08917C20.4501 4.4967 18.2792 1.41288 15.1795 0.0738525Z" fill="url(#paint0_linear_45_1850)"/>
<path d="M18.9018 16.4509H17.5008L18.4026 15.5491C18.5288 15.4229 18.5288 15.2189 18.4026 15.0927C18.2765 14.9665 18.0724 14.9665 17.9462 15.0927L16.5869 16.452H16.0472L16.2227 16.2764C16.3489 16.1503 16.3489 15.9462 16.2227 15.8201C16.0965 15.6939 15.8925 15.6939 15.7663 15.8201L15.1344 16.452H13.4142C13.3768 16.2896 13.3132 16.1382 13.2276 16.0022L14.4443 14.7855H15.3385C15.5173 14.7855 15.661 14.6407 15.661 14.463C15.661 14.2852 15.5162 14.1404 15.3385 14.1404H15.0905L15.4723 13.7586H17.3944C17.5732 13.7586 17.7169 13.6138 17.7169 13.4361C17.7169 13.2583 17.5721 13.1135 17.3944 13.1135H16.1185L16.5946 12.6374L17.1081 12.124C17.2342 11.9978 17.2342 11.7937 17.1081 11.6676C16.9819 11.5414 16.7778 11.5414 16.6517 11.6676L16.1382 12.181L15.6621 12.6571V11.3812C15.6621 11.2024 15.5173 11.0587 15.3395 11.0587C15.1618 11.0587 15.017 11.2035 15.017 11.3812V13.3033L14.6352 13.6851V13.4372C14.6352 13.2583 14.4904 13.1146 14.3127 13.1146C14.1349 13.1146 13.9901 13.2594 13.9901 13.4372V14.3313L12.7734 15.548C12.6374 15.4624 12.486 15.3977 12.3236 15.3615V13.6412L12.9556 13.0093C13.0817 12.8831 13.0817 12.6791 12.9556 12.5529C12.8294 12.4267 12.6253 12.4267 12.4992 12.5529L12.3236 12.7285V12.1887L13.6829 10.8294C13.8091 10.7032 13.8091 10.4992 13.6829 10.373C13.5568 10.2468 13.3527 10.2468 13.2265 10.373L12.3247 11.2748V9.87382C12.3247 9.69499 12.1799 9.55127 12.0022 9.55127C11.8245 9.55127 11.6796 9.69609 11.6796 9.87382V11.2748L10.7778 10.373C10.6517 10.2468 10.4476 10.2468 10.3214 10.373C10.1953 10.4992 10.1953 10.7032 10.3214 10.8294L11.6807 12.1887V12.7285L11.5052 12.5529C11.379 12.4267 11.175 12.4267 11.0488 12.5529C10.9227 12.6791 10.9227 12.8831 11.0488 13.0093L11.6807 13.6412V15.3615C11.5184 15.3988 11.367 15.4624 11.2309 15.548L10.0143 14.3313V13.4372C10.0143 13.2583 9.86944 13.1146 9.69171 13.1146C9.51399 13.1146 9.36917 13.2594 9.36917 13.4372V13.6851L8.98738 13.3033V11.3812C8.98738 11.2024 8.84256 11.0587 8.66484 11.0587C8.48711 11.0587 8.34229 11.2035 8.34229 11.3812V12.6571L7.86615 12.181L7.35271 11.6676C7.22655 11.5414 7.02249 11.5414 6.89632 11.6676C6.77016 11.7937 6.77016 11.9978 6.89632 12.124L7.40976 12.6374L7.8859 13.1135H6.60998C6.43115 13.1135 6.28743 13.2583 6.28743 13.4361C6.28743 13.6138 6.43225 13.7586 6.60998 13.7586H8.53209L8.91388 14.1404H8.66593C8.48711 14.1404 8.34339 14.2852 8.34339 14.463C8.34339 14.6407 8.4882 14.7855 8.66593 14.7855H9.56006L10.7767 16.0022C10.6912 16.1382 10.6264 16.2896 10.5902 16.452H8.86999L8.23807 15.8201C8.1119 15.6939 7.90784 15.6939 7.78168 15.8201C7.65551 15.9462 7.65551 16.1503 7.78168 16.2764L7.95721 16.452H7.41744L6.05814 15.0927C5.93198 14.9665 5.72792 14.9665 5.60175 15.0927C5.47559 15.2189 5.47559 15.4229 5.60175 15.5491L6.50356 16.4509H5.10257C4.92375 16.4509 4.78003 16.5957 4.78003 16.7734C4.78003 16.9512 4.92485 17.096 5.10257 17.096H6.50356L5.60175 17.9978C5.47559 18.124 5.47559 18.328 5.60175 18.4542C5.66429 18.5178 5.74767 18.5485 5.82995 18.5485C5.91223 18.5485 5.99561 18.5167 6.05814 18.4542L7.41744 17.0949H7.95721L7.78168 17.2704C7.65551 17.3966 7.65551 17.6006 7.78168 17.7268C7.84421 17.7904 7.92759 17.8212 8.00987 17.8212C8.09215 17.8212 8.17553 17.7893 8.23807 17.7268L8.86999 17.0949H10.5902C10.6275 17.2573 10.6912 17.4086 10.7767 17.5447L9.56006 18.7614H8.66593C8.48711 18.7614 8.34339 18.9062 8.34339 19.0839C8.34339 19.2616 8.4882 19.4065 8.66593 19.4065H8.91388L8.53209 19.7882H6.60998C6.43115 19.7882 6.28743 19.9331 6.28743 20.1108C6.28743 20.2885 6.43225 20.4333 6.60998 20.4333H7.8859L7.40976 20.9095L6.89632 21.4229C6.77016 21.5491 6.77016 21.7531 6.89632 21.8793C6.95886 21.9429 7.04223 21.9737 7.12452 21.9737C7.2068 21.9737 7.29018 21.9418 7.35271 21.8793L7.86615 21.3659L8.34229 20.8897V22.1656C8.34229 22.3445 8.48711 22.4882 8.66484 22.4882C8.84256 22.4882 8.98738 22.3434 8.98738 22.1656V20.2435L9.36917 19.8617V20.1097C9.36917 20.2885 9.51399 20.4322 9.69171 20.4322C9.86944 20.4322 10.0143 20.2874 10.0143 20.1097V19.2156L11.2309 17.9989C11.367 18.0845 11.5184 18.1492 11.6807 18.1854V19.9056L11.0488 20.5376C10.9227 20.6637 10.9227 20.8678 11.0488 20.9939C11.175 21.1201 11.379 21.1201 11.5052 20.9939L11.6807 20.8184V21.3582L10.3214 22.7175C10.1953 22.8436 10.1953 23.0477 10.3214 23.1739C10.4476 23.3 10.6517 23.3 10.7778 23.1739L11.6796 22.2721V23.673C11.6796 23.8519 11.8245 23.9956 12.0022 23.9956C12.1799 23.9956 12.3247 23.8508 12.3247 23.673V22.2721L13.2265 23.1739C13.2891 23.2375 13.3725 23.2682 13.4547 23.2682C13.537 23.2682 13.6204 23.2364 13.6829 23.1739C13.8091 23.0477 13.8091 22.8436 13.6829 22.7175L12.3236 21.3582V20.8184L12.4992 20.9939C12.5617 21.0576 12.6451 21.0883 12.7274 21.0883C12.8097 21.0883 12.893 21.0565 12.9556 20.9939C13.0817 20.8678 13.0817 20.6637 12.9556 20.5376L12.3236 19.9056V18.1854C12.486 18.1481 12.6374 18.0845 12.7734 17.9989L13.9901 19.2156V20.1097C13.9901 20.2885 14.1349 20.4322 14.3127 20.4322C14.4904 20.4322 14.6352 20.2874 14.6352 20.1097V19.8617L15.017 20.2435V22.1656C15.017 22.3445 15.1618 22.4882 15.3395 22.4882C15.5173 22.4882 15.6621 22.3434 15.6621 22.1656V20.8897L16.1382 21.3659L16.6517 21.8793C16.7142 21.9429 16.7976 21.9737 16.8799 21.9737C16.9621 21.9737 17.0455 21.9418 17.1081 21.8793C17.2342 21.7531 17.2342 21.5491 17.1081 21.4229L16.5946 20.9095L16.1185 20.4333H17.3944C17.5732 20.4333 17.7169 20.2885 17.7169 20.1108C17.7169 19.9331 17.5721 19.7882 17.3944 19.7882H15.4723L15.0905 19.4065H15.3385C15.5173 19.4065 15.661 19.2616 15.661 19.0839C15.661 18.9062 15.5162 18.7614 15.3385 18.7614H14.4443L13.2276 17.5447C13.3132 17.4086 13.3779 17.2573 13.4142 17.0949H15.1344L15.7663 17.7268C15.8289 17.7904 15.9122 17.8212 15.9945 17.8212C16.0768 17.8212 16.1602 17.7893 16.2227 17.7268C16.3489 17.6006 16.3489 17.3966 16.2227 17.2704L16.0472 17.0949H16.5869L17.9462 18.4542C18.0088 18.5178 18.0922 18.5485 18.1744 18.5485C18.2567 18.5485 18.3401 18.5167 18.4026 18.4542C18.5288 18.328 18.5288 18.124 18.4026 17.9978L17.5008 17.096H18.9018C19.0806 17.096 19.2244 16.9512 19.2244 16.7734C19.2244 16.5957 19.0795 16.4509 18.9018 16.4509Z" fill="white"/>
<path d="M18.9018 16.4509H17.5008L18.4026 15.5491C18.5288 15.4229 18.5288 15.2189 18.4026 15.0927C18.2765 14.9665 18.0724 14.9665 17.9462 15.0927L16.5869 16.452H16.0472L16.2227 16.2764C16.3489 16.1503 16.3489 15.9462 16.2227 15.8201C16.0965 15.6939 15.8925 15.6939 15.7663 15.8201L15.1344 16.452H13.4142C13.3768 16.2896 13.3132 16.1382 13.2276 16.0022L14.4443 14.7855H15.3385C15.5173 14.7855 15.661 14.6407 15.661 14.463C15.661 14.2852 15.5162 14.1404 15.3385 14.1404H15.0905L15.4723 13.7586H17.3944C17.5732 13.7586 17.7169 13.6138 17.7169 13.4361C17.7169 13.2583 17.5721 13.1135 17.3944 13.1135H16.1185L16.5946 12.6374L17.1081 12.124C17.2342 11.9978 17.2342 11.7937 17.1081 11.6676C16.9819 11.5414 16.7778 11.5414 16.6517 11.6676L16.1382 12.181L15.6621 12.6571V11.3812C15.6621 11.2024 15.5173 11.0587 15.3395 11.0587C15.1618 11.0587 15.017 11.2035 15.017 11.3812V13.3033L14.6352 13.6851V13.4372C14.6352 13.2583 14.4904 13.1146 14.3127 13.1146C14.1349 13.1146 13.9901 13.2594 13.9901 13.4372V14.3313L12.7734 15.548C12.6374 15.4624 12.486 15.3977 12.3236 15.3615V13.6412L12.9556 13.0093C13.0817 12.8831 13.0817 12.6791 12.9556 12.5529C12.8294 12.4267 12.6253 12.4267 12.4992 12.5529L12.3236 12.7285V12.1887L13.6829 10.8294C13.8091 10.7032 13.8091 10.4992 13.6829 10.373C13.5568 10.2468 13.3527 10.2468 13.2265 10.373L12.3247 11.2748V9.87382C12.3247 9.69499 12.1799 9.55127 12.0022 9.55127C11.8245 9.55127 11.6796 9.69609 11.6796 9.87382V11.2748L10.7778 10.373C10.6517 10.2468 10.4476 10.2468 10.3214 10.373C10.1953 10.4992 10.1953 10.7032 10.3214 10.8294L11.6807 12.1887V12.7285L11.5052 12.5529C11.379 12.4267 11.175 12.4267 11.0488 12.5529C10.9227 12.6791 10.9227 12.8831 11.0488 13.0093L11.6807 13.6412V15.3615C11.5184 15.3988 11.367 15.4624 11.2309 15.548L10.0143 14.3313V13.4372C10.0143 13.2583 9.86944 13.1146 9.69171 13.1146C9.51399 13.1146 9.36917 13.2594 9.36917 13.4372V13.6851L8.98738 13.3033V11.3812C8.98738 11.2024 8.84256 11.0587 8.66484 11.0587C8.48711 11.0587 8.34229 11.2035 8.34229 11.3812V12.6571L7.86615 12.181L7.35271 11.6676C7.22655 11.5414 7.02249 11.5414 6.89632 11.6676C6.77016 11.7937 6.77016 11.9978 6.89632 12.124L7.40976 12.6374L7.8859 13.1135H6.60998C6.43115 13.1135 6.28743 13.2583 6.28743 13.4361C6.28743 13.6138 6.43225 13.7586 6.60998 13.7586H8.53209L8.91388 14.1404H8.66593C8.48711 14.1404 8.34339 14.2852 8.34339 14.463C8.34339 14.6407 8.4882 14.7855 8.66593 14.7855H9.56006L10.7767 16.0022C10.6912 16.1382 10.6264 16.2896 10.5902 16.452H8.86999L8.23807 15.8201C8.1119 15.6939 7.90784 15.6939 7.78168 15.8201C7.65551 15.9462 7.65551 16.1503 7.78168 16.2764L7.95721 16.452H7.41744L6.05814 15.0927C5.93198 14.9665 5.72792 14.9665 5.60175 15.0927C5.47559 15.2189 5.47559 15.4229 5.60175 15.5491L6.50356 16.4509H5.10257C4.92375 16.4509 4.78003 16.5957 4.78003 16.7734C4.78003 16.9512 4.92485 17.096 5.10257 17.096H6.50356L5.60175 17.9978C5.47559 18.124 5.47559 18.328 5.60175 18.4542C5.66429 18.5178 5.74767 18.5485 5.82995 18.5485C5.91223 18.5485 5.99561 18.5167 6.05814 18.4542L7.41744 17.0949H7.95721L7.78168 17.2704C7.65551 17.3966 7.65551 17.6006 7.78168 17.7268C7.84421 17.7904 7.92759 17.8212 8.00987 17.8212C8.09215 17.8212 8.17553 17.7893 8.23807 17.7268L8.86999 17.0949H10.5902C10.6275 17.2573 10.6912 17.4086 10.7767 17.5447L9.56006 18.7614H8.66593C8.48711 18.7614 8.34339 18.9062 8.34339 19.0839C8.34339 19.2616 8.4882 19.4065 8.66593 19.4065H8.91388L8.53209 19.7882H6.60998C6.43115 19.7882 6.28743 19.9331 6.28743 20.1108C6.28743 20.2885 6.43225 20.4333 6.60998 20.4333H7.8859L7.40976 20.9095L6.89632 21.4229C6.77016 21.5491 6.77016 21.7531 6.89632 21.8793C6.95886 21.9429 7.04223 21.9737 7.12452 21.9737C7.2068 21.9737 7.29018 21.9418 7.35271 21.8793L7.86615 21.3659L8.34229 20.8897V22.1656C8.34229 22.3445 8.48711 22.4882 8.66484 22.4882C8.84256 22.4882 8.98738 22.3434 8.98738 22.1656V20.2435L9.36917 19.8617V20.1097C9.36917 20.2885 9.51399 20.4322 9.69171 20.4322C9.86944 20.4322 10.0143 20.2874 10.0143 20.1097V19.2156L11.2309 17.9989C11.367 18.0845 11.5184 18.1492 11.6807 18.1854V19.9056L11.0488 20.5376C10.9227 20.6637 10.9227 20.8678 11.0488 20.9939C11.175 21.1201 11.379 21.1201 11.5052 20.9939L11.6807 20.8184V21.3582L10.3214 22.7175C10.1953 22.8436 10.1953 23.0477 10.3214 23.1739C10.4476 23.3 10.6517 23.3 10.7778 23.1739L11.6796 22.2721V23.673C11.6796 23.8519 11.8245 23.9956 12.0022 23.9956C12.1799 23.9956 12.3247 23.8508 12.3247 23.673V22.2721L13.2265 23.1739C13.2891 23.2375 13.3725 23.2682 13.4547 23.2682C13.537 23.2682 13.6204 23.2364 13.6829 23.1739C13.8091 23.0477 13.8091 22.8436 13.6829 22.7175L12.3236 21.3582V20.8184L12.4992 20.9939C12.5617 21.0576 12.6451 21.0883 12.7274 21.0883C12.8097 21.0883 12.893 21.0565 12.9556 20.9939C13.0817 20.8678 13.0817 20.6637 12.9556 20.5376L12.3236 19.9056V18.1854C12.486 18.1481 12.6374 18.0845 12.7734 17.9989L13.9901 19.2156V20.1097C13.9901 20.2885 14.1349 20.4322 14.3127 20.4322C14.4904 20.4322 14.6352 20.2874 14.6352 20.1097V19.8617L15.017 20.2435V22.1656C15.017 22.3445 15.1618 22.4882 15.3395 22.4882C15.5173 22.4882 15.6621 22.3434 15.6621 22.1656V20.8897L16.1382 21.3659L16.6517 21.8793C16.7142 21.9429 16.7976 21.9737 16.8799 21.9737C16.9621 21.9737 17.0455 21.9418 17.1081 21.8793C17.2342 21.7531 17.2342 21.5491 17.1081 21.4229L16.5946 20.9095L16.1185 20.4333H17.3944C17.5732 20.4333 17.7169 20.2885 17.7169 20.1108C17.7169 19.9331 17.5721 19.7882 17.3944 19.7882H15.4723L15.0905 19.4065H15.3385C15.5173 19.4065 15.661 19.2616 15.661 19.0839C15.661 18.9062 15.5162 18.7614 15.3385 18.7614H14.4443L13.2276 17.5447C13.3132 17.4086 13.3779 17.2573 13.4142 17.0949H15.1344L15.7663 17.7268C15.8289 17.7904 15.9122 17.8212 15.9945 17.8212C16.0768 17.8212 16.1602 17.7893 16.2227 17.7268C16.3489 17.6006 16.3489 17.3966 16.2227 17.2704L16.0472 17.0949H16.5869L17.9462 18.4542C18.0088 18.5178 18.0922 18.5485 18.1744 18.5485C18.2567 18.5485 18.3401 18.5167 18.4026 18.4542C18.5288 18.328 18.5288 18.124 18.4026 17.9978L17.5008 17.096H18.9018C19.0806 17.096 19.2244 16.9512 19.2244 16.7734C19.2244 16.5957 19.0795 16.4509 18.9018 16.4509Z" fill="#90CAF9"/>
<path d="M18.9018 16.4509H17.5008L18.4026 15.5491C18.5288 15.4229 18.5288 15.2189 18.4026 15.0927C18.2765 14.9665 18.0724 14.9665 17.9462 15.0927L16.5869 16.452H16.0472L16.2227 16.2764C16.3489 16.1503 16.3489 15.9462 16.2227 15.8201C16.0965 15.6939 15.8925 15.6939 15.7663 15.8201L15.1344 16.452H13.4142C13.3768 16.2896 13.3132 16.1382 13.2276 16.0022L14.4443 14.7855H15.3385C15.5173 14.7855 15.661 14.6407 15.661 14.463C15.661 14.2852 15.5162 14.1404 15.3385 14.1404H15.0905L15.4723 13.7586H17.3944C17.5732 13.7586 17.7169 13.6138 17.7169 13.4361C17.7169 13.2583 17.5721 13.1135 17.3944 13.1135H16.1185L16.5946 12.6374L17.1081 12.124C17.2342 11.9978 17.2342 11.7937 17.1081 11.6676C16.9819 11.5414 16.7778 11.5414 16.6517 11.6676L16.1382 12.181L15.6621 12.6571V11.3812C15.6621 11.2024 15.5173 11.0587 15.3395 11.0587C15.1618 11.0587 15.017 11.2035 15.017 11.3812V13.3033L14.6352 13.6851V13.4372C14.6352 13.2583 14.4904 13.1146 14.3127 13.1146C14.1349 13.1146 13.9901 13.2594 13.9901 13.4372V14.3313L12.7734 15.548C12.6374 15.4624 12.486 15.3977 12.3236 15.3615V13.6412L12.9556 13.0093C13.0817 12.8831 13.0817 12.6791 12.9556 12.5529C12.8294 12.4267 12.6253 12.4267 12.4992 12.5529L12.3236 12.7285V12.1887L13.6829 10.8294C13.8091 10.7032 13.8091 10.4992 13.6829 10.373C13.5568 10.2468 13.3527 10.2468 13.2265 10.373L12.3247 11.2748V9.87382C12.3247 9.69499 12.1799 9.55127 12.0022 9.55127C11.8245 9.55127 11.6796 9.69609 11.6796 9.87382V11.2748L10.7778 10.373C10.6517 10.2468 10.4476 10.2468 10.3214 10.373C10.1953 10.4992 10.1953 10.7032 10.3214 10.8294L11.6807 12.1887V12.7285L11.5052 12.5529C11.379 12.4267 11.175 12.4267 11.0488 12.5529C10.9227 12.6791 10.9227 12.8831 11.0488 13.0093L11.6807 13.6412V15.3615C11.5184 15.3988 11.367 15.4624 11.2309 15.548L10.0143 14.3313V13.4372C10.0143 13.2583 9.86944 13.1146 9.69171 13.1146C9.51399 13.1146 9.36917 13.2594 9.36917 13.4372V13.6851L8.98738 13.3033V11.3812C8.98738 11.2024 8.84256 11.0587 8.66484 11.0587C8.48711 11.0587 8.34229 11.2035 8.34229 11.3812V12.6571L7.86615 12.181L7.35271 11.6676C7.22655 11.5414 7.02249 11.5414 6.89632 11.6676C6.77016 11.7937 6.77016 11.9978 6.89632 12.124L7.40976 12.6374L7.8859 13.1135H6.60998C6.43115 13.1135 6.28743 13.2583 6.28743 13.4361C6.28743 13.6138 6.43225 13.7586 6.60998 13.7586H8.53209L8.91388 14.1404H8.66593C8.48711 14.1404 8.34339 14.2852 8.34339 14.463C8.34339 14.6407 8.4882 14.7855 8.66593 14.7855H9.56006L10.7767 16.0022C10.6912 16.1382 10.6264 16.2896 10.5902 16.452H8.86999L8.23807 15.8201C8.1119 15.6939 7.90784 15.6939 7.78168 15.8201C7.65551 15.9462 7.65551 16.1503 7.78168 16.2764L7.95721 16.452H7.41744L6.05814 15.0927C5.93198 14.9665 5.72792 14.9665 5.60175 15.0927C5.47559 15.2189 5.47559 15.4229 5.60175 15.5491L6.50356 16.4509H5.10257C4.92375 16.4509 4.78003 16.5957 4.78003 16.7734C4.78003 16.9512 4.92485 17.096 5.10257 17.096H6.50356L5.60175 17.9978C5.47559 18.124 5.47559 18.328 5.60175 18.4542C5.66429 18.5178 5.74767 18.5485 5.82995 18.5485C5.91223 18.5485 5.99561 18.5167 6.05814 18.4542L7.41744 17.0949H7.95721L7.78168 17.2704C7.65551 17.3966 7.65551 17.6006 7.78168 17.7268C7.84421 17.7904 7.92759 17.8212 8.00987 17.8212C8.09215 17.8212 8.17553 17.7893 8.23807 17.7268L8.86999 17.0949H10.5902C10.6275 17.2573 10.6912 17.4086 10.7767 17.5447L9.56006 18.7614H8.66593C8.48711 18.7614 8.34339 18.9062 8.34339 19.0839C8.34339 19.2616 8.4882 19.4065 8.66593 19.4065H8.91388L8.53209 19.7882H6.60998C6.43115 19.7882 6.28743 19.9331 6.28743 20.1108C6.28743 20.2885 6.43225 20.4333 6.60998 20.4333H7.8859L7.40976 20.9095L6.89632 21.4229C6.77016 21.5491 6.77016 21.7531 6.89632 21.8793C6.95886 21.9429 7.04223 21.9737 7.12452 21.9737C7.2068 21.9737 7.29018 21.9418 7.35271 21.8793L7.86615 21.3659L8.34229 20.8897V22.1656C8.34229 22.3445 8.48711 22.4882 8.66484 22.4882C8.84256 22.4882 8.98738 22.3434 8.98738 22.1656V20.2435L9.36917 19.8617V20.1097C9.36917 20.2885 9.51399 20.4322 9.69171 20.4322C9.86944 20.4322 10.0143 20.2874 10.0143 20.1097V19.2156L11.2309 17.9989C11.367 18.0845 11.5184 18.1492 11.6807 18.1854V19.9056L11.0488 20.5376C10.9227 20.6637 10.9227 20.8678 11.0488 20.9939C11.175 21.1201 11.379 21.1201 11.5052 20.9939L11.6807 20.8184V21.3582L10.3214 22.7175C10.1953 22.8436 10.1953 23.0477 10.3214 23.1739C10.4476 23.3 10.6517 23.3 10.7778 23.1739L11.6796 22.2721V23.673C11.6796 23.8519 11.8245 23.9956 12.0022 23.9956C12.1799 23.9956 12.3247 23.8508 12.3247 23.673V22.2721L13.2265 23.1739C13.2891 23.2375 13.3725 23.2682 13.4547 23.2682C13.537 23.2682 13.6204 23.2364 13.6829 23.1739C13.8091 23.0477 13.8091 22.8436 13.6829 22.7175L12.3236 21.3582V20.8184L12.4992 20.9939C12.5617 21.0576 12.6451 21.0883 12.7274 21.0883C12.8097 21.0883 12.893 21.0565 12.9556 20.9939C13.0817 20.8678 13.0817 20.6637 12.9556 20.5376L12.3236 19.9056V18.1854C12.486 18.1481 12.6374 18.0845 12.7734 17.9989L13.9901 19.2156V20.1097C13.9901 20.2885 14.1349 20.4322 14.3127 20.4322C14.4904 20.4322 14.6352 20.2874 14.6352 20.1097V19.8617L15.017 20.2435V22.1656C15.017 22.3445 15.1618 22.4882 15.3395 22.4882C15.5173 22.4882 15.6621 22.3434 15.6621 22.1656V20.8897L16.1382 21.3659L16.6517 21.8793C16.7142 21.9429 16.7976 21.9737 16.8799 21.9737C16.9621 21.9737 17.0455 21.9418 17.1081 21.8793C17.2342 21.7531 17.2342 21.5491 17.1081 21.4229L16.5946 20.9095L16.1185 20.4333H17.3944C17.5732 20.4333 17.7169 20.2885 17.7169 20.1108C17.7169 19.9331 17.5721 19.7882 17.3944 19.7882H15.4723L15.0905 19.4065H15.3385C15.5173 19.4065 15.661 19.2616 15.661 19.0839C15.661 18.9062 15.5162 18.7614 15.3385 18.7614H14.4443L13.2276 17.5447C13.3132 17.4086 13.3779 17.2573 13.4142 17.0949H15.1344L15.7663 17.7268C15.8289 17.7904 15.9122 17.8212 15.9945 17.8212C16.0768 17.8212 16.1602 17.7893 16.2227 17.7268C16.3489 17.6006 16.3489 17.3966 16.2227 17.2704L16.0472 17.0949H16.5869L17.9462 18.4542C18.0088 18.5178 18.0922 18.5485 18.1744 18.5485C18.2567 18.5485 18.3401 18.5167 18.4026 18.4542C18.5288 18.328 18.5288 18.124 18.4026 17.9978L17.5008 17.096H18.9018C19.0806 17.096 19.2244 16.9512 19.2244 16.7734C19.2244 16.5957 19.0795 16.4509 18.9018 16.4509Z" fill="url(#paint1_linear_45_1850)"/>
<defs>
<linearGradient id="paint0_linear_45_1850" x1="3.56006" y1="8.44422" x2="20.4501" y2="8.44422" gradientUnits="userSpaceOnUse">
<stop stop-color="#FFFF00" stop-opacity="0.2"/>
<stop offset="0.13" stop-color="#FDEF0B" stop-opacity="0.4"/>
<stop offset="0.27" stop-color="#FDE015" stop-opacity="0.58"/>
<stop offset="0.41" stop-color="#FCD41E" stop-opacity="0.73"/>
<stop offset="0.55" stop-color="#FBCB24" stop-opacity="0.85"/>
<stop offset="0.68" stop-color="#FBC529" stop-opacity="0.93"/>
<stop offset="0.82" stop-color="#FBC12C" stop-opacity="0.98"/>
<stop offset="0.94" stop-color="#FBC02D"/>
</linearGradient>
<linearGradient id="paint1_linear_45_1850" x1="6.77125" y1="27.2057" x2="17.6226" y2="5.54798" gradientUnits="userSpaceOnUse">
<stop offset="0.17" stop-color="#3F51B5" stop-opacity="0.4"/>
<stop offset="1" stop-color="#90CAF9" stop-opacity="0"/>
</linearGradient>
</defs>
</svg>
