<svg width="24" height="24" viewBox="0 0 24 24" fill="none" xmlns="http://www.w3.org/2000/svg">
<path d="M15.1694 0C15.5332 0.960795 15.7332 2.00129 15.7332 3.08962C15.7332 7.90953 11.8262 11.8165 7.0063 11.8165C5.77886 11.8165 4.60939 11.5629 3.55005 11.1049C4.79778 14.3989 7.98159 16.7422 11.7132 16.7422C16.5331 16.7422 20.44 12.8352 20.44 8.01532C20.44 4.42285 18.2692 1.33903 15.1694 0Z" fill="#FFEE58"/>
<path opacity="0.4" d="M15.1694 0.0738525C15.5332 1.03465 15.7332 2.07515 15.7332 3.16347C15.7332 7.98339 11.8262 11.8903 7.0063 11.8903C5.77886 11.8903 4.60939 11.6367 3.55005 11.1788C4.79778 14.4727 7.98159 16.816 11.7132 16.816C16.5331 16.816 20.44 12.9091 20.44 8.08917C20.44 4.4967 18.2692 1.41288 15.1694 0.0738525Z" fill="url(#paint0_linear_45_1840)"/>
<path d="M14.5 24C18.366 24 21.5 20.8662 21.5 17.0005C21.5 13.1347 18.366 10 14.5 10C10.634 10 7.5 13.1338 7.5 16.9995C7.5 20.8653 10.634 23.9991 14.5 23.9991V24Z" fill="white"/>
<path d="M7 24C9.48533 24 11.5 21.9853 11.5 19.5C11.5 17.0147 9.48533 15 7 15C4.51467 15 2.5 17.0147 2.5 19.5C2.5 21.9853 4.51467 24 7 24Z" fill="white"/>
<path d="M7 24C9.48533 24 11.5 21.9853 11.5 19.5C11.5 17.0147 9.48533 15 7 15C4.51467 15 2.5 17.0147 2.5 19.5C2.5 21.9853 4.51467 24 7 24Z" fill="url(#paint1_radial_45_1840)"/>
<defs>
<linearGradient id="paint0_linear_45_1840" x1="3.55005" y1="8.44422" x2="20.44" y2="8.44422" gradientUnits="userSpaceOnUse">
<stop stop-color="#FFFF00" stop-opacity="0.2"/>
<stop offset="0.13" stop-color="#FDEF0B" stop-opacity="0.4"/>
<stop offset="0.27" stop-color="#FDE015" stop-opacity="0.58"/>
<stop offset="0.41" stop-color="#FCD41E" stop-opacity="0.73"/>
<stop offset="0.55" stop-color="#FBCB24" stop-opacity="0.85"/>
<stop offset="0.68" stop-color="#FBC529" stop-opacity="0.93"/>
<stop offset="0.82" stop-color="#FBC12C" stop-opacity="0.98"/>
<stop offset="0.94" stop-color="#FBC02D"/>
</linearGradient>
<radialGradient id="paint1_radial_45_1840" cx="0" cy="0" r="1" gradientUnits="userSpaceOnUse" gradientTransform="translate(4.16794 22.3748) rotate(-41.76) scale(10.941)">
<stop stop-color="white" stop-opacity="0"/>
<stop offset="0.95" stop-color="#757575" stop-opacity="0.32"/>
</radialGradient>
</defs>
</svg>
