<svg width="24" height="24" viewBox="0 0 24 24" fill="none" xmlns="http://www.w3.org/2000/svg">
<g clip-path="url(#clip0_45_1683)">
<path d="M8.12477 19.0203L8.62685 22.3174C8.78559 23.3592 7.82258 24.2211 6.8043 23.9483C5.78603 23.6755 5.38271 22.4467 6.04118 21.6236L8.12477 19.0192V19.0203Z" fill="#90CAF9"/>
<path d="M12.6517 19.0203L13.1538 22.3174C13.3126 23.3592 12.3496 24.2211 11.3313 23.9483C10.313 23.6755 9.90969 22.4467 10.5682 21.6236L12.6517 19.0192V19.0203Z" fill="#90CAF9"/>
<path d="M17.1787 19.0203L17.6808 22.3174C17.8395 23.3592 16.8765 24.2211 15.8583 23.9483C14.84 23.6755 14.4367 22.4467 15.0951 21.6236L17.1787 19.0192V19.0203Z" fill="#90CAF9"/>
<path d="M8.12477 19.0203L8.62685 22.3174C8.78559 23.3592 7.82258 24.2211 6.8043 23.9483C5.78603 23.6755 5.38271 22.4467 6.04118 21.6236L8.12477 19.0192V19.0203ZM10.5682 21.6248C9.90969 22.4479 10.313 23.6767 11.3313 23.9494C12.3495 24.2222 13.3126 23.3604 13.1538 22.3186L12.6517 19.0215L10.5682 21.626V21.6248ZM15.0951 21.6248C14.4367 22.4479 14.84 23.6767 15.8582 23.9494C16.8765 24.2222 17.8395 23.3604 17.6808 22.3186L17.1787 19.0215L15.0951 21.626V21.6248Z" fill="url(#paint0_linear_45_1683)"/>
<path d="M15.1795 0C15.5432 0.960795 15.7432 2.00129 15.7432 3.08962C15.7432 7.90953 11.8362 11.8165 7.01631 11.8165C5.78887 11.8165 4.6194 11.5629 3.56006 11.1049C4.80779 14.3989 7.9916 16.7422 11.7232 16.7422C16.5431 16.7422 20.4501 12.8352 20.4501 8.01532C20.4501 4.42285 18.2792 1.33903 15.1795 0Z" fill="#FFEE58"/>
<path opacity="0.4" d="M15.1795 0.0738525C15.5432 1.03465 15.7432 2.07515 15.7432 3.16347C15.7432 7.98339 11.8362 11.8903 7.01631 11.8903C5.78887 11.8903 4.6194 11.6367 3.56006 11.1788C4.80779 14.4727 7.9916 16.816 11.7232 16.816C16.5431 16.816 20.4501 12.9091 20.4501 8.08917C20.4501 4.4967 18.2792 1.41288 15.1795 0.0738525Z" fill="url(#paint1_linear_45_1683)"/>
</g>
<defs>
<linearGradient id="paint0_linear_45_1683" x1="8.44107" y1="29.6252" x2="16.3956" y2="12.3733" gradientUnits="userSpaceOnUse">
<stop stop-color="#3F51B5" stop-opacity="0.4"/>
<stop offset="1" stop-color="#90CAF9" stop-opacity="0"/>
</linearGradient>
<linearGradient id="paint1_linear_45_1683" x1="3.56006" y1="8.44422" x2="20.4501" y2="8.44422" gradientUnits="userSpaceOnUse">
<stop stop-color="#FFFF00" stop-opacity="0.2"/>
<stop offset="0.13" stop-color="#FDEF0B" stop-opacity="0.4"/>
<stop offset="0.27" stop-color="#FDE015" stop-opacity="0.58"/>
<stop offset="0.41" stop-color="#FCD41E" stop-opacity="0.73"/>
<stop offset="0.55" stop-color="#FBCB24" stop-opacity="0.85"/>
<stop offset="0.68" stop-color="#FBC529" stop-opacity="0.93"/>
<stop offset="0.82" stop-color="#FBC12C" stop-opacity="0.98"/>
<stop offset="0.94" stop-color="#FBC02D"/>
</linearGradient>
<clipPath id="clip0_45_1683">
<rect width="24" height="24" fill="white"/>
</clipPath>
</defs>
</svg>
