<svg width="24" height="24" viewBox="0 0 24 24" fill="none" xmlns="http://www.w3.org/2000/svg">
<mask id="mask0_45_886" style="mask-type:luminance" maskUnits="userSpaceOnUse" x="1" y="4" width="13" height="13">
<path d="M13.835 4H1.16003V16.6749H13.835V4Z" fill="white"/>
</mask>
<g mask="url(#mask0_45_886)">
<path d="M6.84751 4.31045C7.18213 3.89684 7.81406 3.89684 8.14868 4.31045L8.73893 5.04113C8.94738 5.29895 9.28748 5.40866 9.60674 5.32309L10.5141 5.07953C11.0286 4.94129 11.5388 5.31211 11.5662 5.84421L11.6145 6.78224C11.632 7.11247 11.8416 7.40211 12.1509 7.5206L13.0286 7.85631C13.5256 8.04721 13.7209 8.64733 13.4302 9.09385L12.9178 9.88158C12.7379 10.1591 12.7379 10.5168 12.9178 10.7944L13.4302 11.5821C13.7209 12.0286 13.5256 12.6287 13.0286 12.8196L12.1509 13.1554C11.8416 13.2738 11.632 13.5624 11.6145 13.8937L11.5662 14.8317C11.5388 15.3638 11.0275 15.7347 10.5141 15.5964L9.60674 15.3529C9.28748 15.2673 8.94628 15.377 8.73893 15.6348L8.14868 16.3655C7.81406 16.7791 7.18213 16.7791 6.84751 16.3655L6.25726 15.6348C6.04881 15.377 5.70871 15.2673 5.38945 15.3529L4.48214 15.5964C3.96759 15.7347 3.45744 15.3638 3.43001 14.8317L3.38174 13.8937C3.36418 13.5635 3.15463 13.2738 2.84525 13.1554L1.96756 12.8196C1.47057 12.6287 1.27528 12.0286 1.56602 11.5821L2.07837 10.7944C2.2583 10.5168 2.2583 10.1591 2.07837 9.88158L1.56602 9.09385C1.27528 8.64733 1.47057 8.04721 1.96756 7.85631L2.84525 7.5206C3.15463 7.40211 3.36418 7.11357 3.38174 6.78224L3.43001 5.84421C3.45744 5.31211 3.96869 4.94129 4.48214 5.07953L5.38945 5.32309C5.70871 5.40866 6.04991 5.29895 6.25726 5.04113L6.84751 4.31045Z" fill="#FBC02D"/>
<path d="M7.48602 14.8657C9.98853 14.8657 12.0171 12.8372 12.0171 10.3347C12.0171 7.83215 9.98853 5.80359 7.48602 5.80359C4.98351 5.80359 2.95496 7.83215 2.95496 10.3347C2.95496 12.8372 4.98351 14.8657 7.48602 14.8657Z" fill="#FFEE58"/>
<path opacity="0.4" d="M7.48602 14.8657C9.98853 14.8657 12.0171 12.8372 12.0171 10.3347C12.0171 7.83215 9.98853 5.80359 7.48602 5.80359C4.98351 5.80359 2.95496 7.83215 2.95496 10.3347C2.95496 12.8372 4.98351 14.8657 7.48602 14.8657Z" fill="url(#paint0_linear_45_886)"/>
<path d="M8.15082 9.0961C8.15082 10.3951 7.09759 11.4483 5.79862 11.4483C4.49964 11.4483 3.44641 10.3951 3.44641 9.0961C3.44641 7.79712 4.49964 6.7439 5.79862 6.7439C7.09759 6.7439 8.15082 7.79712 8.15082 9.0961Z" fill="url(#paint1_radial_45_886)"/>
</g>
<path d="M6.39435 20.8944C9.28523 20.8944 11.6287 18.551 11.6287 15.6601C11.6287 12.7692 9.28523 10.4258 6.39435 10.4258C3.50346 10.4258 1.16003 12.7692 1.16003 15.6601C1.16003 18.551 3.50346 20.8944 6.39435 20.8944Z" fill="white"/>
<path d="M13.7592 10.8954H6.39429V20.8955H13.7581V10.8954H13.7592Z" fill="white"/>
<path d="M14.3923 20.8944C19.0572 20.8944 22.839 17.1127 22.839 12.4478C22.839 7.78284 19.0572 4 14.3923 4C9.72742 4 5.94568 7.78174 5.94568 12.4467C5.94568 17.1116 9.72742 20.8933 14.3923 20.8933V20.8944Z" fill="white"/>
<path d="M6.39435 20.8944C9.28523 20.8944 11.6287 18.551 11.6287 15.6601C11.6287 12.7692 9.28523 10.4258 6.39435 10.4258C3.50346 10.4258 1.16003 12.7692 1.16003 15.6601C1.16003 18.551 3.50346 20.8944 6.39435 20.8944Z" fill="url(#paint2_radial_45_886)"/>
<defs>
<linearGradient id="paint0_linear_45_886" x1="3.55288" y1="6.40151" x2="13.1076" y2="15.9562" gradientUnits="userSpaceOnUse">
<stop stop-color="#FFFF00" stop-opacity="0.2"/>
<stop offset="0.13" stop-color="#FDEF0B" stop-opacity="0.4"/>
<stop offset="0.27" stop-color="#FDE015" stop-opacity="0.58"/>
<stop offset="0.41" stop-color="#FCD41E" stop-opacity="0.73"/>
<stop offset="0.55" stop-color="#FBCB24" stop-opacity="0.85"/>
<stop offset="0.68" stop-color="#FBC529" stop-opacity="0.93"/>
<stop offset="0.82" stop-color="#FBC12C" stop-opacity="0.98"/>
<stop offset="0.94" stop-color="#FBC02D"/>
</linearGradient>
<radialGradient id="paint1_radial_45_886" cx="0" cy="0" r="1" gradientUnits="userSpaceOnUse" gradientTransform="translate(5.78106 9.0961) rotate(90) scale(2.17228)">
<stop stop-color="white"/>
<stop offset="1" stop-color="#FFF176" stop-opacity="0"/>
</radialGradient>
<radialGradient id="paint2_radial_45_886" cx="0" cy="0" r="1" gradientUnits="userSpaceOnUse" gradientTransform="translate(3.23127 18.8275) rotate(-41.76) scale(12.7263)">
<stop stop-color="white" stop-opacity="0"/>
<stop offset="0.95" stop-color="#757575" stop-opacity="0.32"/>
</radialGradient>
</defs>
</svg>
