<svg width="24" height="24" viewBox="0 0 24 24" fill="none" xmlns="http://www.w3.org/2000/svg">
<g clip-path="url(#clip0_45_950)">
<path d="M8.56471 19.0203L9.06679 22.3174C9.22553 23.3592 8.26252 24.2211 7.24424 23.9483C6.22597 23.6755 5.82266 22.4467 6.48112 21.6236L8.56471 19.0192V19.0203Z" fill="#90CAF9"/>
<path d="M13.0917 19.0203L13.5938 22.3174C13.7525 23.3592 12.7895 24.2211 11.7712 23.9483C10.7529 23.6755 10.3496 22.4467 11.0081 21.6236L13.0917 19.0192V19.0203Z" fill="#90CAF9"/>
<path d="M17.6187 19.0203L18.1207 22.3174C18.2795 23.3592 17.3165 24.2211 16.2982 23.9483C15.2799 23.6755 14.8766 22.4467 15.5351 21.6236L17.6187 19.0192V19.0203Z" fill="#90CAF9"/>
<path d="M8.56471 19.0203L9.06679 22.3174C9.22553 23.3592 8.26252 24.2211 7.24424 23.9483C6.22597 23.6755 5.82266 22.4467 6.48112 21.6236L8.56471 19.0192V19.0203ZM11.0081 21.6248C10.3496 22.4479 10.7529 23.6767 11.7712 23.9494C12.7895 24.2222 13.7525 23.3604 13.5938 22.3186L13.0917 19.0215L11.0081 21.626V21.6248ZM15.5351 21.6248C14.8766 22.4479 15.2799 23.6767 16.2982 23.9494C17.3165 24.2222 18.2795 23.3604 18.1207 22.3186L17.6186 19.0215L15.5351 21.626V21.6248Z" fill="url(#paint0_linear_45_950)"/>
<path d="M14.3921 16.8941C19.0569 16.8941 22.8386 13.1125 22.8386 8.44761C22.8386 3.78278 19.0569 0 14.3921 0C9.72724 0 5.94556 3.78168 5.94556 8.44652C5.94556 13.1114 9.72724 16.893 14.3921 16.893V16.8941Z" fill="white"/>
<path d="M6.39426 16.8941C9.2851 16.8941 11.6285 14.5507 11.6285 11.6599C11.6285 8.76905 9.2851 6.42566 6.39426 6.42566C3.50342 6.42566 1.16003 8.76905 1.16003 11.6599C1.16003 14.5507 3.50342 16.8941 6.39426 16.8941Z" fill="white"/>
<path d="M6.39426 16.8941C9.2851 16.8941 11.6285 14.5507 11.6285 11.6599C11.6285 8.76905 9.2851 6.42566 6.39426 6.42566C3.50342 6.42566 1.16003 8.76905 1.16003 11.6599C1.16003 14.5507 3.50342 16.8941 6.39426 16.8941Z" fill="url(#paint1_radial_45_950)"/>
</g>
<defs>
<linearGradient id="paint0_linear_45_950" x1="8.88101" y1="29.6252" x2="16.8355" y2="12.3733" gradientUnits="userSpaceOnUse">
<stop stop-color="#3F51B5" stop-opacity="0.4"/>
<stop offset="1" stop-color="#90CAF9" stop-opacity="0"/>
</linearGradient>
<radialGradient id="paint1_radial_45_950" cx="0" cy="0" r="1" gradientUnits="userSpaceOnUse" gradientTransform="translate(3.10012 15.0037) rotate(-41.76) scale(12.7261)">
<stop stop-color="white" stop-opacity="0"/>
<stop offset="0.95" stop-color="#757575" stop-opacity="0.32"/>
</radialGradient>
<clipPath id="clip0_45_950">
<rect width="24" height="24" fill="white"/>
</clipPath>
</defs>
</svg>
