<svg width="24" height="24" viewBox="0 0 24 24" fill="none" xmlns="http://www.w3.org/2000/svg">
<g clip-path="url(#clip0_45_717)">
<path d="M6.39426 16.8941C9.2851 16.8941 11.6285 14.5507 11.6285 11.6599C11.6285 8.76905 9.2851 6.42566 6.39426 6.42566C3.50342 6.42566 1.16003 8.76905 1.16003 11.6599C1.16003 14.5507 3.50342 16.8941 6.39426 16.8941Z" fill="white"/>
<path d="M13.7591 6.89526H6.39429V16.8953H13.758V6.89526H13.7591Z" fill="white"/>
<path d="M14.3921 16.8941C19.0569 16.8941 22.8386 13.1125 22.8386 8.44761C22.8386 3.78278 19.0569 0 14.3921 0C9.72724 0 5.94556 3.78168 5.94556 8.44652C5.94556 13.1114 9.72724 16.893 14.3921 16.893V16.8941Z" fill="white"/>
<path d="M6.39426 16.8941C9.2851 16.8941 11.6285 14.5507 11.6285 11.6599C11.6285 8.76905 9.2851 6.42566 6.39426 6.42566C3.50342 6.42566 1.16003 8.76905 1.16003 11.6599C1.16003 14.5507 3.50342 16.8941 6.39426 16.8941Z" fill="url(#paint0_radial_45_717)"/>
<path d="M5.43766 17.2605L5.77776 19.492C5.88527 20.1974 5.2336 20.7811 4.54462 20.5957C3.85565 20.4113 3.58247 19.5797 4.02789 19.0224L5.43766 17.2594V17.2605Z" fill="#90CAF9"/>
<path d="M4.02789 19.0235C3.58247 19.5809 3.85565 20.4114 4.54462 20.5968C5.2336 20.7811 5.88527 20.1974 5.77776 19.4931L5.43766 17.2616L4.02789 19.0246V19.0235Z" fill="url(#paint1_linear_45_717)"/>
<path d="M6.42948 20.6307L6.76958 22.8622C6.87709 23.5677 6.22542 24.1513 5.53645 23.9659C4.84747 23.7816 4.5743 22.95 5.01971 22.3927L6.42948 20.6296V20.6307Z" fill="#90CAF9"/>
<path d="M5.01971 22.3927C4.5743 22.95 4.84747 23.7805 5.53645 23.9659C6.22542 24.1502 6.87709 23.5666 6.76958 22.8622L6.42948 20.6307L5.01971 22.3938V22.3927Z" fill="url(#paint2_linear_45_717)"/>
<path d="M19.8656 16.4509H18.4646L19.3664 15.5491C19.4925 15.4229 19.4925 15.2189 19.3664 15.0927C19.2402 14.9665 19.0361 14.9665 18.91 15.0927L17.5507 16.452H17.0109L17.1865 16.2764C17.3126 16.1503 17.3126 15.9462 17.1865 15.8201C17.0603 15.6939 16.8562 15.6939 16.7301 15.8201L16.0981 16.452H14.3779C14.3406 16.2896 14.277 16.1382 14.1914 16.0022L15.4081 14.7855H16.3022C16.481 14.7855 16.6247 14.6407 16.6247 14.463C16.6247 14.2852 16.4799 14.1404 16.3022 14.1404H16.0543L16.436 13.7586H18.3581C18.537 13.7586 18.6807 13.6138 18.6807 13.4361C18.6807 13.2583 18.5359 13.1135 18.3581 13.1135H17.0822L17.5584 12.6374L18.0718 12.124C18.198 11.9978 18.198 11.7937 18.0718 11.6676C17.9456 11.5414 17.7416 11.5414 17.6154 11.6676L17.102 12.181L16.6258 12.6571V11.3812C16.6258 11.2024 16.481 11.0587 16.3033 11.0587C16.1256 11.0587 15.9807 11.2035 15.9807 11.3812V13.3033L15.599 13.6851V13.4372C15.599 13.2583 15.4541 13.1146 15.2764 13.1146C15.0987 13.1146 14.9539 13.2594 14.9539 13.4372V14.3313L13.7372 15.548C13.6012 15.4624 13.4498 15.3977 13.2874 15.3615V13.6412L13.9193 13.0093C14.0455 12.8831 14.0455 12.6791 13.9193 12.5529C13.7931 12.4267 13.5891 12.4267 13.4629 12.5529L13.2874 12.7285V12.1887L14.6467 10.8294C14.7728 10.7032 14.7728 10.4992 14.6467 10.373C14.5205 10.2468 14.3165 10.2468 14.1903 10.373L13.2885 11.2748V9.87382C13.2885 9.69499 13.1437 9.55127 12.9659 9.55127C12.7882 9.55127 12.6434 9.69609 12.6434 9.87382V11.2748L11.7416 10.373C11.6154 10.2468 11.4114 10.2468 11.2852 10.373C11.159 10.4992 11.159 10.7032 11.2852 10.8294L12.6445 12.1887V12.7285L12.469 12.5529C12.3428 12.4267 12.1387 12.4267 12.0126 12.5529C11.8864 12.6791 11.8864 12.8831 12.0126 13.0093L12.6445 13.6412V15.3615C12.4821 15.3988 12.3307 15.4624 12.1947 15.548L10.978 14.3313V13.4372C10.978 13.2583 10.8332 13.1146 10.6555 13.1146C10.4777 13.1146 10.3329 13.2594 10.3329 13.4372V13.6851L9.95113 13.3033V11.3812C9.95113 11.2024 9.80631 11.0587 9.62858 11.0587C9.45085 11.0587 9.30603 11.2035 9.30603 11.3812V12.6571L8.8299 12.181L8.31646 11.6676C8.19029 11.5414 7.98623 11.5414 7.86007 11.6676C7.7339 11.7937 7.7339 11.9978 7.86007 12.124L8.37351 12.6374L8.84964 13.1135H7.57373C7.3949 13.1135 7.25118 13.2583 7.25118 13.4361C7.25118 13.6138 7.396 13.7586 7.57373 13.7586H9.49583L9.87762 14.1404H9.62968C9.45085 14.1404 9.30713 14.2852 9.30713 14.463C9.30713 14.6407 9.45195 14.7855 9.62968 14.7855H10.5238L11.7405 16.0022C11.6549 16.1382 11.5902 16.2896 11.554 16.452H9.83374L9.20181 15.8201C9.07565 15.6939 8.87159 15.6939 8.74542 15.8201C8.61925 15.9462 8.61925 16.1503 8.74542 16.2764L8.92095 16.452H8.38119L7.02189 15.0927C6.89572 14.9665 6.69166 14.9665 6.5655 15.0927C6.43933 15.2189 6.43933 15.4229 6.5655 15.5491L7.46731 16.4509H6.06632C5.88749 16.4509 5.74377 16.5957 5.74377 16.7734C5.74377 16.9512 5.88859 17.096 6.06632 17.096H7.46731L6.5655 17.9978C6.43933 18.124 6.43933 18.328 6.5655 18.4542C6.62803 18.5178 6.71141 18.5485 6.79369 18.5485C6.87597 18.5485 6.95935 18.5167 7.02189 18.4542L8.38119 17.0949H8.92095L8.74542 17.2704C8.61925 17.3966 8.61925 17.6006 8.74542 17.7268C8.80795 17.7904 8.89133 17.8212 8.97362 17.8212C9.0559 17.8212 9.13928 17.7893 9.20181 17.7268L9.83374 17.0949H11.554C11.5913 17.2573 11.6549 17.4086 11.7405 17.5447L10.5238 18.7614H9.62968C9.45085 18.7614 9.30713 18.9062 9.30713 19.0839C9.30713 19.2616 9.45195 19.4065 9.62968 19.4065H9.87762L9.49583 19.7882H7.57373C7.3949 19.7882 7.25118 19.9331 7.25118 20.1108C7.25118 20.2885 7.396 20.4333 7.57373 20.4333H8.84964L8.37351 20.9095L7.86007 21.4229C7.7339 21.5491 7.7339 21.7531 7.86007 21.8793C7.9226 21.9429 8.00598 21.9737 8.08826 21.9737C8.17054 21.9737 8.25392 21.9418 8.31646 21.8793L8.8299 21.3659L9.30603 20.8897V22.1656C9.30603 22.3445 9.45085 22.4882 9.62858 22.4882C9.80631 22.4882 9.95113 22.3434 9.95113 22.1656V20.2435L10.3329 19.8617V20.1097C10.3329 20.2885 10.4777 20.4322 10.6555 20.4322C10.8332 20.4322 10.978 20.2874 10.978 20.1097V19.2156L12.1947 17.9989C12.3307 18.0845 12.4821 18.1492 12.6445 18.1854V19.9056L12.0126 20.5376C11.8864 20.6637 11.8864 20.8678 12.0126 20.9939C12.1387 21.1201 12.3428 21.1201 12.469 20.9939L12.6445 20.8184V21.3582L11.2852 22.7175C11.159 22.8436 11.159 23.0477 11.2852 23.1739C11.4114 23.3 11.6154 23.3 11.7416 23.1739L12.6434 22.2721V23.673C12.6434 23.8519 12.7882 23.9956 12.9659 23.9956C13.1437 23.9956 13.2885 23.8508 13.2885 23.673V22.2721L14.1903 23.1739C14.2528 23.2375 14.3362 23.2682 14.4185 23.2682C14.5008 23.2682 14.5841 23.2364 14.6467 23.1739C14.7728 23.0477 14.7728 22.8436 14.6467 22.7175L13.2874 21.3582V20.8184L13.4629 20.9939C13.5255 21.0576 13.6088 21.0883 13.6911 21.0883C13.7734 21.0883 13.8568 21.0565 13.9193 20.9939C14.0455 20.8678 14.0455 20.6637 13.9193 20.5376L13.2874 19.9056V18.1854C13.4498 18.1481 13.6012 18.0845 13.7372 17.9989L14.9539 19.2156V20.1097C14.9539 20.2885 15.0987 20.4322 15.2764 20.4322C15.4541 20.4322 15.599 20.2874 15.599 20.1097V19.8617L15.9807 20.2435V22.1656C15.9807 22.3445 16.1256 22.4882 16.3033 22.4882C16.481 22.4882 16.6258 22.3434 16.6258 22.1656V20.8897L17.102 21.3659L17.6154 21.8793C17.678 21.9429 17.7613 21.9737 17.8436 21.9737C17.9259 21.9737 18.0093 21.9418 18.0718 21.8793C18.198 21.7531 18.198 21.5491 18.0718 21.4229L17.5584 20.9095L17.0822 20.4333H18.3581C18.537 20.4333 18.6807 20.2885 18.6807 20.1108C18.6807 19.9331 18.5359 19.7882 18.3581 19.7882H16.436L16.0543 19.4065H16.3022C16.481 19.4065 16.6247 19.2616 16.6247 19.0839C16.6247 18.9062 16.4799 18.7614 16.3022 18.7614H15.4081L14.1914 17.5447C14.277 17.4086 14.3417 17.2573 14.3779 17.0949H16.0981L16.7301 17.7268C16.7926 17.7904 16.876 17.8212 16.9583 17.8212C17.0405 17.8212 17.1239 17.7893 17.1865 17.7268C17.3126 17.6006 17.3126 17.3966 17.1865 17.2704L17.0109 17.0949H17.5507L18.91 18.4542C18.9725 18.5178 19.0559 18.5485 19.1382 18.5485C19.2205 18.5485 19.3038 18.5167 19.3664 18.4542C19.4925 18.328 19.4925 18.124 19.3664 17.9978L18.4646 17.096H19.8656C20.0444 17.096 20.1881 16.9512 20.1881 16.7734C20.1881 16.5957 20.0433 16.4509 19.8656 16.4509Z" fill="white"/>
<path d="M19.8656 16.4509H18.4646L19.3664 15.5491C19.4925 15.4229 19.4925 15.2189 19.3664 15.0927C19.2402 14.9665 19.0361 14.9665 18.91 15.0927L17.5507 16.452H17.0109L17.1865 16.2764C17.3126 16.1503 17.3126 15.9462 17.1865 15.8201C17.0603 15.6939 16.8562 15.6939 16.7301 15.8201L16.0981 16.452H14.3779C14.3406 16.2896 14.277 16.1382 14.1914 16.0022L15.4081 14.7855H16.3022C16.481 14.7855 16.6247 14.6407 16.6247 14.463C16.6247 14.2852 16.4799 14.1404 16.3022 14.1404H16.0543L16.436 13.7586H18.3581C18.537 13.7586 18.6807 13.6138 18.6807 13.4361C18.6807 13.2583 18.5359 13.1135 18.3581 13.1135H17.0822L17.5584 12.6374L18.0718 12.124C18.198 11.9978 18.198 11.7937 18.0718 11.6676C17.9456 11.5414 17.7416 11.5414 17.6154 11.6676L17.102 12.181L16.6258 12.6571V11.3812C16.6258 11.2024 16.481 11.0587 16.3033 11.0587C16.1256 11.0587 15.9807 11.2035 15.9807 11.3812V13.3033L15.599 13.6851V13.4372C15.599 13.2583 15.4541 13.1146 15.2764 13.1146C15.0987 13.1146 14.9539 13.2594 14.9539 13.4372V14.3313L13.7372 15.548C13.6012 15.4624 13.4498 15.3977 13.2874 15.3615V13.6412L13.9193 13.0093C14.0455 12.8831 14.0455 12.6791 13.9193 12.5529C13.7931 12.4267 13.5891 12.4267 13.4629 12.5529L13.2874 12.7285V12.1887L14.6467 10.8294C14.7728 10.7032 14.7728 10.4992 14.6467 10.373C14.5205 10.2468 14.3165 10.2468 14.1903 10.373L13.2885 11.2748V9.87382C13.2885 9.69499 13.1437 9.55127 12.9659 9.55127C12.7882 9.55127 12.6434 9.69609 12.6434 9.87382V11.2748L11.7416 10.373C11.6154 10.2468 11.4114 10.2468 11.2852 10.373C11.159 10.4992 11.159 10.7032 11.2852 10.8294L12.6445 12.1887V12.7285L12.469 12.5529C12.3428 12.4267 12.1387 12.4267 12.0126 12.5529C11.8864 12.6791 11.8864 12.8831 12.0126 13.0093L12.6445 13.6412V15.3615C12.4821 15.3988 12.3307 15.4624 12.1947 15.548L10.978 14.3313V13.4372C10.978 13.2583 10.8332 13.1146 10.6555 13.1146C10.4777 13.1146 10.3329 13.2594 10.3329 13.4372V13.6851L9.95113 13.3033V11.3812C9.95113 11.2024 9.80631 11.0587 9.62858 11.0587C9.45085 11.0587 9.30603 11.2035 9.30603 11.3812V12.6571L8.8299 12.181L8.31646 11.6676C8.19029 11.5414 7.98623 11.5414 7.86007 11.6676C7.7339 11.7937 7.7339 11.9978 7.86007 12.124L8.37351 12.6374L8.84964 13.1135H7.57373C7.3949 13.1135 7.25118 13.2583 7.25118 13.4361C7.25118 13.6138 7.396 13.7586 7.57373 13.7586H9.49583L9.87762 14.1404H9.62968C9.45085 14.1404 9.30713 14.2852 9.30713 14.463C9.30713 14.6407 9.45195 14.7855 9.62968 14.7855H10.5238L11.7405 16.0022C11.6549 16.1382 11.5902 16.2896 11.554 16.452H9.83374L9.20181 15.8201C9.07565 15.6939 8.87159 15.6939 8.74542 15.8201C8.61925 15.9462 8.61925 16.1503 8.74542 16.2764L8.92095 16.452H8.38119L7.02189 15.0927C6.89572 14.9665 6.69166 14.9665 6.5655 15.0927C6.43933 15.2189 6.43933 15.4229 6.5655 15.5491L7.46731 16.4509H6.06632C5.88749 16.4509 5.74377 16.5957 5.74377 16.7734C5.74377 16.9512 5.88859 17.096 6.06632 17.096H7.46731L6.5655 17.9978C6.43933 18.124 6.43933 18.328 6.5655 18.4542C6.62803 18.5178 6.71141 18.5485 6.79369 18.5485C6.87597 18.5485 6.95935 18.5167 7.02189 18.4542L8.38119 17.0949H8.92095L8.74542 17.2704C8.61925 17.3966 8.61925 17.6006 8.74542 17.7268C8.80795 17.7904 8.89133 17.8212 8.97362 17.8212C9.0559 17.8212 9.13928 17.7893 9.20181 17.7268L9.83374 17.0949H11.554C11.5913 17.2573 11.6549 17.4086 11.7405 17.5447L10.5238 18.7614H9.62968C9.45085 18.7614 9.30713 18.9062 9.30713 19.0839C9.30713 19.2616 9.45195 19.4065 9.62968 19.4065H9.87762L9.49583 19.7882H7.57373C7.3949 19.7882 7.25118 19.9331 7.25118 20.1108C7.25118 20.2885 7.396 20.4333 7.57373 20.4333H8.84964L8.37351 20.9095L7.86007 21.4229C7.7339 21.5491 7.7339 21.7531 7.86007 21.8793C7.9226 21.9429 8.00598 21.9737 8.08826 21.9737C8.17054 21.9737 8.25392 21.9418 8.31646 21.8793L8.8299 21.3659L9.30603 20.8897V22.1656C9.30603 22.3445 9.45085 22.4882 9.62858 22.4882C9.80631 22.4882 9.95113 22.3434 9.95113 22.1656V20.2435L10.3329 19.8617V20.1097C10.3329 20.2885 10.4777 20.4322 10.6555 20.4322C10.8332 20.4322 10.978 20.2874 10.978 20.1097V19.2156L12.1947 17.9989C12.3307 18.0845 12.4821 18.1492 12.6445 18.1854V19.9056L12.0126 20.5376C11.8864 20.6637 11.8864 20.8678 12.0126 20.9939C12.1387 21.1201 12.3428 21.1201 12.469 20.9939L12.6445 20.8184V21.3582L11.2852 22.7175C11.159 22.8436 11.159 23.0477 11.2852 23.1739C11.4114 23.3 11.6154 23.3 11.7416 23.1739L12.6434 22.2721V23.673C12.6434 23.8519 12.7882 23.9956 12.9659 23.9956C13.1437 23.9956 13.2885 23.8508 13.2885 23.673V22.2721L14.1903 23.1739C14.2528 23.2375 14.3362 23.2682 14.4185 23.2682C14.5008 23.2682 14.5841 23.2364 14.6467 23.1739C14.7728 23.0477 14.7728 22.8436 14.6467 22.7175L13.2874 21.3582V20.8184L13.4629 20.9939C13.5255 21.0576 13.6088 21.0883 13.6911 21.0883C13.7734 21.0883 13.8568 21.0565 13.9193 20.9939C14.0455 20.8678 14.0455 20.6637 13.9193 20.5376L13.2874 19.9056V18.1854C13.4498 18.1481 13.6012 18.0845 13.7372 17.9989L14.9539 19.2156V20.1097C14.9539 20.2885 15.0987 20.4322 15.2764 20.4322C15.4541 20.4322 15.599 20.2874 15.599 20.1097V19.8617L15.9807 20.2435V22.1656C15.9807 22.3445 16.1256 22.4882 16.3033 22.4882C16.481 22.4882 16.6258 22.3434 16.6258 22.1656V20.8897L17.102 21.3659L17.6154 21.8793C17.678 21.9429 17.7613 21.9737 17.8436 21.9737C17.9259 21.9737 18.0093 21.9418 18.0718 21.8793C18.198 21.7531 18.198 21.5491 18.0718 21.4229L17.5584 20.9095L17.0822 20.4333H18.3581C18.537 20.4333 18.6807 20.2885 18.6807 20.1108C18.6807 19.9331 18.5359 19.7882 18.3581 19.7882H16.436L16.0543 19.4065H16.3022C16.481 19.4065 16.6247 19.2616 16.6247 19.0839C16.6247 18.9062 16.4799 18.7614 16.3022 18.7614H15.4081L14.1914 17.5447C14.277 17.4086 14.3417 17.2573 14.3779 17.0949H16.0981L16.7301 17.7268C16.7926 17.7904 16.876 17.8212 16.9583 17.8212C17.0405 17.8212 17.1239 17.7893 17.1865 17.7268C17.3126 17.6006 17.3126 17.3966 17.1865 17.2704L17.0109 17.0949H17.5507L18.91 18.4542C18.9725 18.5178 19.0559 18.5485 19.1382 18.5485C19.2205 18.5485 19.3038 18.5167 19.3664 18.4542C19.4925 18.328 19.4925 18.124 19.3664 17.9978L18.4646 17.096H19.8656C20.0444 17.096 20.1881 16.9512 20.1881 16.7734C20.1881 16.5957 20.0433 16.4509 19.8656 16.4509Z" fill="#90CAF9"/>
<path d="M19.8656 16.4509H18.4646L19.3664 15.5491C19.4925 15.4229 19.4925 15.2189 19.3664 15.0927C19.2402 14.9665 19.0361 14.9665 18.91 15.0927L17.5507 16.452H17.0109L17.1865 16.2764C17.3126 16.1503 17.3126 15.9462 17.1865 15.8201C17.0603 15.6939 16.8562 15.6939 16.7301 15.8201L16.0981 16.452H14.3779C14.3406 16.2896 14.277 16.1382 14.1914 16.0022L15.4081 14.7855H16.3022C16.481 14.7855 16.6247 14.6407 16.6247 14.463C16.6247 14.2852 16.4799 14.1404 16.3022 14.1404H16.0543L16.436 13.7586H18.3581C18.537 13.7586 18.6807 13.6138 18.6807 13.4361C18.6807 13.2583 18.5359 13.1135 18.3581 13.1135H17.0822L17.5584 12.6374L18.0718 12.124C18.198 11.9978 18.198 11.7937 18.0718 11.6676C17.9456 11.5414 17.7416 11.5414 17.6154 11.6676L17.102 12.181L16.6258 12.6571V11.3812C16.6258 11.2024 16.481 11.0587 16.3033 11.0587C16.1256 11.0587 15.9807 11.2035 15.9807 11.3812V13.3033L15.599 13.6851V13.4372C15.599 13.2583 15.4541 13.1146 15.2764 13.1146C15.0987 13.1146 14.9539 13.2594 14.9539 13.4372V14.3313L13.7372 15.548C13.6012 15.4624 13.4498 15.3977 13.2874 15.3615V13.6412L13.9193 13.0093C14.0455 12.8831 14.0455 12.6791 13.9193 12.5529C13.7931 12.4267 13.5891 12.4267 13.4629 12.5529L13.2874 12.7285V12.1887L14.6467 10.8294C14.7728 10.7032 14.7728 10.4992 14.6467 10.373C14.5205 10.2468 14.3165 10.2468 14.1903 10.373L13.2885 11.2748V9.87382C13.2885 9.69499 13.1437 9.55127 12.9659 9.55127C12.7882 9.55127 12.6434 9.69609 12.6434 9.87382V11.2748L11.7416 10.373C11.6154 10.2468 11.4114 10.2468 11.2852 10.373C11.159 10.4992 11.159 10.7032 11.2852 10.8294L12.6445 12.1887V12.7285L12.469 12.5529C12.3428 12.4267 12.1387 12.4267 12.0126 12.5529C11.8864 12.6791 11.8864 12.8831 12.0126 13.0093L12.6445 13.6412V15.3615C12.4821 15.3988 12.3307 15.4624 12.1947 15.548L10.978 14.3313V13.4372C10.978 13.2583 10.8332 13.1146 10.6555 13.1146C10.4777 13.1146 10.3329 13.2594 10.3329 13.4372V13.6851L9.95113 13.3033V11.3812C9.95113 11.2024 9.80631 11.0587 9.62858 11.0587C9.45085 11.0587 9.30603 11.2035 9.30603 11.3812V12.6571L8.8299 12.181L8.31646 11.6676C8.19029 11.5414 7.98623 11.5414 7.86007 11.6676C7.7339 11.7937 7.7339 11.9978 7.86007 12.124L8.37351 12.6374L8.84964 13.1135H7.57373C7.3949 13.1135 7.25118 13.2583 7.25118 13.4361C7.25118 13.6138 7.396 13.7586 7.57373 13.7586H9.49583L9.87762 14.1404H9.62968C9.45085 14.1404 9.30713 14.2852 9.30713 14.463C9.30713 14.6407 9.45195 14.7855 9.62968 14.7855H10.5238L11.7405 16.0022C11.6549 16.1382 11.5902 16.2896 11.554 16.452H9.83374L9.20181 15.8201C9.07565 15.6939 8.87159 15.6939 8.74542 15.8201C8.61925 15.9462 8.61925 16.1503 8.74542 16.2764L8.92095 16.452H8.38119L7.02189 15.0927C6.89572 14.9665 6.69166 14.9665 6.5655 15.0927C6.43933 15.2189 6.43933 15.4229 6.5655 15.5491L7.46731 16.4509H6.06632C5.88749 16.4509 5.74377 16.5957 5.74377 16.7734C5.74377 16.9512 5.88859 17.096 6.06632 17.096H7.46731L6.5655 17.9978C6.43933 18.124 6.43933 18.328 6.5655 18.4542C6.62803 18.5178 6.71141 18.5485 6.79369 18.5485C6.87597 18.5485 6.95935 18.5167 7.02189 18.4542L8.38119 17.0949H8.92095L8.74542 17.2704C8.61925 17.3966 8.61925 17.6006 8.74542 17.7268C8.80795 17.7904 8.89133 17.8212 8.97362 17.8212C9.0559 17.8212 9.13928 17.7893 9.20181 17.7268L9.83374 17.0949H11.554C11.5913 17.2573 11.6549 17.4086 11.7405 17.5447L10.5238 18.7614H9.62968C9.45085 18.7614 9.30713 18.9062 9.30713 19.0839C9.30713 19.2616 9.45195 19.4065 9.62968 19.4065H9.87762L9.49583 19.7882H7.57373C7.3949 19.7882 7.25118 19.9331 7.25118 20.1108C7.25118 20.2885 7.396 20.4333 7.57373 20.4333H8.84964L8.37351 20.9095L7.86007 21.4229C7.7339 21.5491 7.7339 21.7531 7.86007 21.8793C7.9226 21.9429 8.00598 21.9737 8.08826 21.9737C8.17054 21.9737 8.25392 21.9418 8.31646 21.8793L8.8299 21.3659L9.30603 20.8897V22.1656C9.30603 22.3445 9.45085 22.4882 9.62858 22.4882C9.80631 22.4882 9.95113 22.3434 9.95113 22.1656V20.2435L10.3329 19.8617V20.1097C10.3329 20.2885 10.4777 20.4322 10.6555 20.4322C10.8332 20.4322 10.978 20.2874 10.978 20.1097V19.2156L12.1947 17.9989C12.3307 18.0845 12.4821 18.1492 12.6445 18.1854V19.9056L12.0126 20.5376C11.8864 20.6637 11.8864 20.8678 12.0126 20.9939C12.1387 21.1201 12.3428 21.1201 12.469 20.9939L12.6445 20.8184V21.3582L11.2852 22.7175C11.159 22.8436 11.159 23.0477 11.2852 23.1739C11.4114 23.3 11.6154 23.3 11.7416 23.1739L12.6434 22.2721V23.673C12.6434 23.8519 12.7882 23.9956 12.9659 23.9956C13.1437 23.9956 13.2885 23.8508 13.2885 23.673V22.2721L14.1903 23.1739C14.2528 23.2375 14.3362 23.2682 14.4185 23.2682C14.5008 23.2682 14.5841 23.2364 14.6467 23.1739C14.7728 23.0477 14.7728 22.8436 14.6467 22.7175L13.2874 21.3582V20.8184L13.4629 20.9939C13.5255 21.0576 13.6088 21.0883 13.6911 21.0883C13.7734 21.0883 13.8568 21.0565 13.9193 20.9939C14.0455 20.8678 14.0455 20.6637 13.9193 20.5376L13.2874 19.9056V18.1854C13.4498 18.1481 13.6012 18.0845 13.7372 17.9989L14.9539 19.2156V20.1097C14.9539 20.2885 15.0987 20.4322 15.2764 20.4322C15.4541 20.4322 15.599 20.2874 15.599 20.1097V19.8617L15.9807 20.2435V22.1656C15.9807 22.3445 16.1256 22.4882 16.3033 22.4882C16.481 22.4882 16.6258 22.3434 16.6258 22.1656V20.8897L17.102 21.3659L17.6154 21.8793C17.678 21.9429 17.7613 21.9737 17.8436 21.9737C17.9259 21.9737 18.0093 21.9418 18.0718 21.8793C18.198 21.7531 18.198 21.5491 18.0718 21.4229L17.5584 20.9095L17.0822 20.4333H18.3581C18.537 20.4333 18.6807 20.2885 18.6807 20.1108C18.6807 19.9331 18.5359 19.7882 18.3581 19.7882H16.436L16.0543 19.4065H16.3022C16.481 19.4065 16.6247 19.2616 16.6247 19.0839C16.6247 18.9062 16.4799 18.7614 16.3022 18.7614H15.4081L14.1914 17.5447C14.277 17.4086 14.3417 17.2573 14.3779 17.0949H16.0981L16.7301 17.7268C16.7926 17.7904 16.876 17.8212 16.9583 17.8212C17.0405 17.8212 17.1239 17.7893 17.1865 17.7268C17.3126 17.6006 17.3126 17.3966 17.1865 17.2704L17.0109 17.0949H17.5507L18.91 18.4542C18.9725 18.5178 19.0559 18.5485 19.1382 18.5485C19.2205 18.5485 19.3038 18.5167 19.3664 18.4542C19.4925 18.328 19.4925 18.124 19.3664 17.9978L18.4646 17.096H19.8656C20.0444 17.096 20.1881 16.9512 20.1881 16.7734C20.1881 16.5957 20.0433 16.4509 19.8656 16.4509Z" fill="url(#paint3_linear_45_717)"/>
</g>
<defs>
<radialGradient id="paint0_radial_45_717" cx="0" cy="0" r="1" gradientUnits="userSpaceOnUse" gradientTransform="translate(3.10784 15.0115) rotate(-41.76) scale(12.7261)">
<stop stop-color="white" stop-opacity="0"/>
<stop offset="0.95" stop-color="#757575" stop-opacity="0.32"/>
</radialGradient>
<linearGradient id="paint1_linear_45_717" x1="3.66585" y1="22.0998" x2="6.74101" y2="15.4316" gradientUnits="userSpaceOnUse">
<stop stop-color="#3F51B5" stop-opacity="0.4"/>
<stop offset="1" stop-color="#90CAF9" stop-opacity="0"/>
</linearGradient>
<linearGradient id="paint2_linear_45_717" x1="4.65767" y1="25.47" x2="7.73282" y2="18.8019" gradientUnits="userSpaceOnUse">
<stop stop-color="#3F51B5" stop-opacity="0.4"/>
<stop offset="1" stop-color="#90CAF9" stop-opacity="0"/>
</linearGradient>
<linearGradient id="paint3_linear_45_717" x1="7.735" y1="27.2057" x2="18.5863" y2="5.54798" gradientUnits="userSpaceOnUse">
<stop offset="0.17" stop-color="#3F51B5" stop-opacity="0.4"/>
<stop offset="1" stop-color="#90CAF9" stop-opacity="0"/>
</linearGradient>
<clipPath id="clip0_45_717">
<rect width="24" height="24" fill="white"/>
</clipPath>
</defs>
</svg>
