<svg width="24" height="24" viewBox="0 0 24 24" fill="none" xmlns="http://www.w3.org/2000/svg">
<path d="M6.39426 16.8941C9.2851 16.8941 11.6285 14.5507 11.6285 11.6599C11.6285 8.76905 9.2851 6.42566 6.39426 6.42566C3.50342 6.42566 1.16003 8.76905 1.16003 11.6599C1.16003 14.5507 3.50342 16.8941 6.39426 16.8941Z" fill="white"/>
<path d="M13.7591 6.89526H6.39429V16.8953H13.758V6.89526H13.7591Z" fill="white"/>
<path d="M14.3921 16.8941C19.0569 16.8941 22.8386 13.1125 22.8386 8.44761C22.8386 3.78278 19.0569 0 14.3921 0C9.72724 0 5.94556 3.78168 5.94556 8.44652C5.94556 13.1114 9.72724 16.893 14.3921 16.893V16.8941Z" fill="white"/>
<path d="M6.39426 16.8941C9.2851 16.8941 11.6285 14.5507 11.6285 11.6599C11.6285 8.76905 9.2851 6.42566 6.39426 6.42566C3.50342 6.42566 1.16003 8.76905 1.16003 11.6599C1.16003 14.5507 3.50342 16.8941 6.39426 16.8941Z" fill="url(#paint0_radial_45_1704)"/>
<path d="M18.9033 16.4509H17.5023L18.4041 15.5491C18.5303 15.4229 18.5303 15.2189 18.4041 15.0927C18.2779 14.9665 18.0739 14.9665 17.9477 15.0927L16.5884 16.452H16.0486L16.2242 16.2764C16.3503 16.1503 16.3503 15.9462 16.2242 15.8201C16.098 15.6939 15.8939 15.6939 15.7678 15.8201L15.1359 16.452H13.4156C13.3783 16.2896 13.3147 16.1382 13.2291 16.0022L14.4458 14.7855H15.3399C15.5187 14.7855 15.6625 14.6407 15.6625 14.463C15.6625 14.2852 15.5176 14.1404 15.3399 14.1404H15.092L15.4738 13.7586H17.3959C17.5747 13.7586 17.7184 13.6138 17.7184 13.4361C17.7184 13.2583 17.5736 13.1135 17.3959 13.1135H16.1199L16.5961 12.6374L17.1095 12.124C17.2357 11.9978 17.2357 11.7937 17.1095 11.6676C16.9834 11.5414 16.7793 11.5414 16.6531 11.6676L16.1397 12.181L15.6636 12.6571V11.3812C15.6636 11.2024 15.5187 11.0587 15.341 11.0587C15.1633 11.0587 15.0185 11.2035 15.0185 11.3812V13.3033L14.6367 13.6851V13.4372C14.6367 13.2583 14.4919 13.1146 14.3141 13.1146C14.1364 13.1146 13.9916 13.2594 13.9916 13.4372V14.3313L12.7749 15.548C12.6389 15.4624 12.4875 15.3977 12.3251 15.3615V13.6412L12.957 13.0093C13.0832 12.8831 13.0832 12.6791 12.957 12.5529C12.8309 12.4267 12.6268 12.4267 12.5006 12.5529L12.3251 12.7285V12.1887L13.6844 10.8294C13.8106 10.7032 13.8106 10.4992 13.6844 10.373C13.5582 10.2468 13.3542 10.2468 13.228 10.373L12.3262 11.2748V9.87382C12.3262 9.69499 12.1814 9.55127 12.0037 9.55127C11.8259 9.55127 11.6811 9.69609 11.6811 9.87382V11.2748L10.7793 10.373C10.6531 10.2468 10.4491 10.2468 10.3229 10.373C10.1967 10.4992 10.1967 10.7032 10.3229 10.8294L11.6822 12.1887V12.7285L11.5067 12.5529C11.3805 12.4267 11.1764 12.4267 11.0503 12.5529C10.9241 12.6791 10.9241 12.8831 11.0503 13.0093L11.6822 13.6412V15.3615C11.5198 15.3988 11.3684 15.4624 11.2324 15.548L10.0157 14.3313V13.4372C10.0157 13.2583 9.87091 13.1146 9.69318 13.1146C9.51545 13.1146 9.37063 13.2594 9.37063 13.4372V13.6851L8.98885 13.3033V11.3812C8.98885 11.2024 8.84403 11.0587 8.6663 11.0587C8.48857 11.0587 8.34376 11.2035 8.34376 11.3812V12.6571L7.86762 12.181L7.35418 11.6676C7.22801 11.5414 7.02395 11.5414 6.89779 11.6676C6.77162 11.7937 6.77162 11.9978 6.89779 12.124L7.41123 12.6374L7.88736 13.1135H6.61144C6.43262 13.1135 6.2889 13.2583 6.2889 13.4361C6.2889 13.6138 6.43372 13.7586 6.61144 13.7586H8.53355L8.91534 14.1404H8.6674C8.48857 14.1404 8.34485 14.2852 8.34485 14.463C8.34485 14.6407 8.48967 14.7855 8.6674 14.7855H9.56153L10.7782 16.0022C10.6926 16.1382 10.6279 16.2896 10.5917 16.452H8.87146L8.23953 15.8201C8.11336 15.6939 7.90931 15.6939 7.78314 15.8201C7.65697 15.9462 7.65697 16.1503 7.78314 16.2764L7.95868 16.452H7.41891L6.05961 15.0927C5.93344 14.9665 5.72938 14.9665 5.60322 15.0927C5.47705 15.2189 5.47705 15.4229 5.60322 15.5491L6.50503 16.4509H5.10404C4.92521 16.4509 4.78149 16.5957 4.78149 16.7734C4.78149 16.9512 4.92631 17.096 5.10404 17.096H6.50503L5.60322 17.9978C5.47705 18.124 5.47705 18.328 5.60322 18.4542C5.66575 18.5178 5.74913 18.5485 5.83141 18.5485C5.91369 18.5485 5.99707 18.5167 6.05961 18.4542L7.41891 17.0949H7.95868L7.78314 17.2704C7.65697 17.3966 7.65697 17.6006 7.78314 17.7268C7.84567 17.7904 7.92905 17.8212 8.01134 17.8212C8.09362 17.8212 8.177 17.7893 8.23953 17.7268L8.87146 17.0949H10.5917C10.629 17.2573 10.6926 17.4086 10.7782 17.5447L9.56153 18.7614H8.6674C8.48857 18.7614 8.34485 18.9062 8.34485 19.0839C8.34485 19.2616 8.48967 19.4065 8.6674 19.4065H8.91534L8.53355 19.7882H6.61144C6.43262 19.7882 6.2889 19.9331 6.2889 20.1108C6.2889 20.2885 6.43372 20.4333 6.61144 20.4333H7.88736L7.41123 20.9095L6.89779 21.4229C6.77162 21.5491 6.77162 21.7531 6.89779 21.8793C6.96032 21.9429 7.0437 21.9737 7.12598 21.9737C7.20826 21.9737 7.29164 21.9418 7.35418 21.8793L7.86762 21.3659L8.34376 20.8897V22.1656C8.34376 22.3445 8.48857 22.4882 8.6663 22.4882C8.84403 22.4882 8.98885 22.3434 8.98885 22.1656V20.2435L9.37063 19.8617V20.1097C9.37063 20.2885 9.51545 20.4322 9.69318 20.4322C9.87091 20.4322 10.0157 20.2874 10.0157 20.1097V19.2156L11.2324 17.9989C11.3684 18.0845 11.5198 18.1492 11.6822 18.1854V19.9056L11.0503 20.5376C10.9241 20.6637 10.9241 20.8678 11.0503 20.9939C11.1764 21.1201 11.3805 21.1201 11.5067 20.9939L11.6822 20.8184V21.3582L10.3229 22.7175C10.1967 22.8436 10.1967 23.0477 10.3229 23.1739C10.4491 23.3 10.6531 23.3 10.7793 23.1739L11.6811 22.2721V23.673C11.6811 23.8519 11.8259 23.9956 12.0037 23.9956C12.1814 23.9956 12.3262 23.8508 12.3262 23.673V22.2721L13.228 23.1739C13.2905 23.2375 13.3739 23.2682 13.4562 23.2682C13.5385 23.2682 13.6219 23.2364 13.6844 23.1739C13.8106 23.0477 13.8106 22.8436 13.6844 22.7175L12.3251 21.3582V20.8184L12.5006 20.9939C12.5632 21.0576 12.6466 21.0883 12.7288 21.0883C12.8111 21.0883 12.8945 21.0565 12.957 20.9939C13.0832 20.8678 13.0832 20.6637 12.957 20.5376L12.3251 19.9056V18.1854C12.4875 18.1481 12.6389 18.0845 12.7749 17.9989L13.9916 19.2156V20.1097C13.9916 20.2885 14.1364 20.4322 14.3141 20.4322C14.4919 20.4322 14.6367 20.2874 14.6367 20.1097V19.8617L15.0185 20.2435V22.1656C15.0185 22.3445 15.1633 22.4882 15.341 22.4882C15.5187 22.4882 15.6636 22.3434 15.6636 22.1656V20.8897L16.1397 21.3659L16.6531 21.8793C16.7157 21.9429 16.799 21.9737 16.8813 21.9737C16.9636 21.9737 17.047 21.9418 17.1095 21.8793C17.2357 21.7531 17.2357 21.5491 17.1095 21.4229L16.5961 20.9095L16.1199 20.4333H17.3959C17.5747 20.4333 17.7184 20.2885 17.7184 20.1108C17.7184 19.9331 17.5736 19.7882 17.3959 19.7882H15.4738L15.092 19.4065H15.3399C15.5187 19.4065 15.6625 19.2616 15.6625 19.0839C15.6625 18.9062 15.5176 18.7614 15.3399 18.7614H14.4458L13.2291 17.5447C13.3147 17.4086 13.3794 17.2573 13.4156 17.0949H15.1359L15.7678 17.7268C15.8303 17.7904 15.9137 17.8212 15.996 17.8212C16.0783 17.8212 16.1616 17.7893 16.2242 17.7268C16.3503 17.6006 16.3503 17.3966 16.2242 17.2704L16.0486 17.0949H16.5884L17.9477 18.4542C18.0102 18.5178 18.0936 18.5485 18.1759 18.5485C18.2582 18.5485 18.3416 18.5167 18.4041 18.4542C18.5303 18.328 18.5303 18.124 18.4041 17.9978L17.5023 17.096H18.9033C19.0821 17.096 19.2258 16.9512 19.2258 16.7734C19.2258 16.5957 19.081 16.4509 18.9033 16.4509Z" fill="white"/>
<path d="M18.9033 16.4509H17.5023L18.4041 15.5491C18.5303 15.4229 18.5303 15.2189 18.4041 15.0927C18.2779 14.9665 18.0739 14.9665 17.9477 15.0927L16.5884 16.452H16.0486L16.2242 16.2764C16.3503 16.1503 16.3503 15.9462 16.2242 15.8201C16.098 15.6939 15.8939 15.6939 15.7678 15.8201L15.1359 16.452H13.4156C13.3783 16.2896 13.3147 16.1382 13.2291 16.0022L14.4458 14.7855H15.3399C15.5187 14.7855 15.6625 14.6407 15.6625 14.463C15.6625 14.2852 15.5176 14.1404 15.3399 14.1404H15.092L15.4738 13.7586H17.3959C17.5747 13.7586 17.7184 13.6138 17.7184 13.4361C17.7184 13.2583 17.5736 13.1135 17.3959 13.1135H16.1199L16.5961 12.6374L17.1095 12.124C17.2357 11.9978 17.2357 11.7937 17.1095 11.6676C16.9834 11.5414 16.7793 11.5414 16.6531 11.6676L16.1397 12.181L15.6636 12.6571V11.3812C15.6636 11.2024 15.5187 11.0587 15.341 11.0587C15.1633 11.0587 15.0185 11.2035 15.0185 11.3812V13.3033L14.6367 13.6851V13.4372C14.6367 13.2583 14.4919 13.1146 14.3141 13.1146C14.1364 13.1146 13.9916 13.2594 13.9916 13.4372V14.3313L12.7749 15.548C12.6389 15.4624 12.4875 15.3977 12.3251 15.3615V13.6412L12.957 13.0093C13.0832 12.8831 13.0832 12.6791 12.957 12.5529C12.8309 12.4267 12.6268 12.4267 12.5006 12.5529L12.3251 12.7285V12.1887L13.6844 10.8294C13.8106 10.7032 13.8106 10.4992 13.6844 10.373C13.5582 10.2468 13.3542 10.2468 13.228 10.373L12.3262 11.2748V9.87382C12.3262 9.69499 12.1814 9.55127 12.0037 9.55127C11.8259 9.55127 11.6811 9.69609 11.6811 9.87382V11.2748L10.7793 10.373C10.6531 10.2468 10.4491 10.2468 10.3229 10.373C10.1967 10.4992 10.1967 10.7032 10.3229 10.8294L11.6822 12.1887V12.7285L11.5067 12.5529C11.3805 12.4267 11.1764 12.4267 11.0503 12.5529C10.9241 12.6791 10.9241 12.8831 11.0503 13.0093L11.6822 13.6412V15.3615C11.5198 15.3988 11.3684 15.4624 11.2324 15.548L10.0157 14.3313V13.4372C10.0157 13.2583 9.87091 13.1146 9.69318 13.1146C9.51545 13.1146 9.37063 13.2594 9.37063 13.4372V13.6851L8.98885 13.3033V11.3812C8.98885 11.2024 8.84403 11.0587 8.6663 11.0587C8.48857 11.0587 8.34376 11.2035 8.34376 11.3812V12.6571L7.86762 12.181L7.35418 11.6676C7.22801 11.5414 7.02395 11.5414 6.89779 11.6676C6.77162 11.7937 6.77162 11.9978 6.89779 12.124L7.41123 12.6374L7.88736 13.1135H6.61144C6.43262 13.1135 6.2889 13.2583 6.2889 13.4361C6.2889 13.6138 6.43372 13.7586 6.61144 13.7586H8.53355L8.91534 14.1404H8.6674C8.48857 14.1404 8.34485 14.2852 8.34485 14.463C8.34485 14.6407 8.48967 14.7855 8.6674 14.7855H9.56153L10.7782 16.0022C10.6926 16.1382 10.6279 16.2896 10.5917 16.452H8.87146L8.23953 15.8201C8.11336 15.6939 7.90931 15.6939 7.78314 15.8201C7.65697 15.9462 7.65697 16.1503 7.78314 16.2764L7.95868 16.452H7.41891L6.05961 15.0927C5.93344 14.9665 5.72938 14.9665 5.60322 15.0927C5.47705 15.2189 5.47705 15.4229 5.60322 15.5491L6.50503 16.4509H5.10404C4.92521 16.4509 4.78149 16.5957 4.78149 16.7734C4.78149 16.9512 4.92631 17.096 5.10404 17.096H6.50503L5.60322 17.9978C5.47705 18.124 5.47705 18.328 5.60322 18.4542C5.66575 18.5178 5.74913 18.5485 5.83141 18.5485C5.91369 18.5485 5.99707 18.5167 6.05961 18.4542L7.41891 17.0949H7.95868L7.78314 17.2704C7.65697 17.3966 7.65697 17.6006 7.78314 17.7268C7.84567 17.7904 7.92905 17.8212 8.01134 17.8212C8.09362 17.8212 8.177 17.7893 8.23953 17.7268L8.87146 17.0949H10.5917C10.629 17.2573 10.6926 17.4086 10.7782 17.5447L9.56153 18.7614H8.6674C8.48857 18.7614 8.34485 18.9062 8.34485 19.0839C8.34485 19.2616 8.48967 19.4065 8.6674 19.4065H8.91534L8.53355 19.7882H6.61144C6.43262 19.7882 6.2889 19.9331 6.2889 20.1108C6.2889 20.2885 6.43372 20.4333 6.61144 20.4333H7.88736L7.41123 20.9095L6.89779 21.4229C6.77162 21.5491 6.77162 21.7531 6.89779 21.8793C6.96032 21.9429 7.0437 21.9737 7.12598 21.9737C7.20826 21.9737 7.29164 21.9418 7.35418 21.8793L7.86762 21.3659L8.34376 20.8897V22.1656C8.34376 22.3445 8.48857 22.4882 8.6663 22.4882C8.84403 22.4882 8.98885 22.3434 8.98885 22.1656V20.2435L9.37063 19.8617V20.1097C9.37063 20.2885 9.51545 20.4322 9.69318 20.4322C9.87091 20.4322 10.0157 20.2874 10.0157 20.1097V19.2156L11.2324 17.9989C11.3684 18.0845 11.5198 18.1492 11.6822 18.1854V19.9056L11.0503 20.5376C10.9241 20.6637 10.9241 20.8678 11.0503 20.9939C11.1764 21.1201 11.3805 21.1201 11.5067 20.9939L11.6822 20.8184V21.3582L10.3229 22.7175C10.1967 22.8436 10.1967 23.0477 10.3229 23.1739C10.4491 23.3 10.6531 23.3 10.7793 23.1739L11.6811 22.2721V23.673C11.6811 23.8519 11.8259 23.9956 12.0037 23.9956C12.1814 23.9956 12.3262 23.8508 12.3262 23.673V22.2721L13.228 23.1739C13.2905 23.2375 13.3739 23.2682 13.4562 23.2682C13.5385 23.2682 13.6219 23.2364 13.6844 23.1739C13.8106 23.0477 13.8106 22.8436 13.6844 22.7175L12.3251 21.3582V20.8184L12.5006 20.9939C12.5632 21.0576 12.6466 21.0883 12.7288 21.0883C12.8111 21.0883 12.8945 21.0565 12.957 20.9939C13.0832 20.8678 13.0832 20.6637 12.957 20.5376L12.3251 19.9056V18.1854C12.4875 18.1481 12.6389 18.0845 12.7749 17.9989L13.9916 19.2156V20.1097C13.9916 20.2885 14.1364 20.4322 14.3141 20.4322C14.4919 20.4322 14.6367 20.2874 14.6367 20.1097V19.8617L15.0185 20.2435V22.1656C15.0185 22.3445 15.1633 22.4882 15.341 22.4882C15.5187 22.4882 15.6636 22.3434 15.6636 22.1656V20.8897L16.1397 21.3659L16.6531 21.8793C16.7157 21.9429 16.799 21.9737 16.8813 21.9737C16.9636 21.9737 17.047 21.9418 17.1095 21.8793C17.2357 21.7531 17.2357 21.5491 17.1095 21.4229L16.5961 20.9095L16.1199 20.4333H17.3959C17.5747 20.4333 17.7184 20.2885 17.7184 20.1108C17.7184 19.9331 17.5736 19.7882 17.3959 19.7882H15.4738L15.092 19.4065H15.3399C15.5187 19.4065 15.6625 19.2616 15.6625 19.0839C15.6625 18.9062 15.5176 18.7614 15.3399 18.7614H14.4458L13.2291 17.5447C13.3147 17.4086 13.3794 17.2573 13.4156 17.0949H15.1359L15.7678 17.7268C15.8303 17.7904 15.9137 17.8212 15.996 17.8212C16.0783 17.8212 16.1616 17.7893 16.2242 17.7268C16.3503 17.6006 16.3503 17.3966 16.2242 17.2704L16.0486 17.0949H16.5884L17.9477 18.4542C18.0102 18.5178 18.0936 18.5485 18.1759 18.5485C18.2582 18.5485 18.3416 18.5167 18.4041 18.4542C18.5303 18.328 18.5303 18.124 18.4041 17.9978L17.5023 17.096H18.9033C19.0821 17.096 19.2258 16.9512 19.2258 16.7734C19.2258 16.5957 19.081 16.4509 18.9033 16.4509Z" fill="#90CAF9"/>
<path d="M18.9033 16.4509H17.5023L18.4041 15.5491C18.5303 15.4229 18.5303 15.2189 18.4041 15.0927C18.2779 14.9665 18.0739 14.9665 17.9477 15.0927L16.5884 16.452H16.0486L16.2242 16.2764C16.3503 16.1503 16.3503 15.9462 16.2242 15.8201C16.098 15.6939 15.8939 15.6939 15.7678 15.8201L15.1359 16.452H13.4156C13.3783 16.2896 13.3147 16.1382 13.2291 16.0022L14.4458 14.7855H15.3399C15.5187 14.7855 15.6625 14.6407 15.6625 14.463C15.6625 14.2852 15.5176 14.1404 15.3399 14.1404H15.092L15.4738 13.7586H17.3959C17.5747 13.7586 17.7184 13.6138 17.7184 13.4361C17.7184 13.2583 17.5736 13.1135 17.3959 13.1135H16.1199L16.5961 12.6374L17.1095 12.124C17.2357 11.9978 17.2357 11.7937 17.1095 11.6676C16.9834 11.5414 16.7793 11.5414 16.6531 11.6676L16.1397 12.181L15.6636 12.6571V11.3812C15.6636 11.2024 15.5187 11.0587 15.341 11.0587C15.1633 11.0587 15.0185 11.2035 15.0185 11.3812V13.3033L14.6367 13.6851V13.4372C14.6367 13.2583 14.4919 13.1146 14.3141 13.1146C14.1364 13.1146 13.9916 13.2594 13.9916 13.4372V14.3313L12.7749 15.548C12.6389 15.4624 12.4875 15.3977 12.3251 15.3615V13.6412L12.957 13.0093C13.0832 12.8831 13.0832 12.6791 12.957 12.5529C12.8309 12.4267 12.6268 12.4267 12.5006 12.5529L12.3251 12.7285V12.1887L13.6844 10.8294C13.8106 10.7032 13.8106 10.4992 13.6844 10.373C13.5582 10.2468 13.3542 10.2468 13.228 10.373L12.3262 11.2748V9.87382C12.3262 9.69499 12.1814 9.55127 12.0037 9.55127C11.8259 9.55127 11.6811 9.69609 11.6811 9.87382V11.2748L10.7793 10.373C10.6531 10.2468 10.4491 10.2468 10.3229 10.373C10.1967 10.4992 10.1967 10.7032 10.3229 10.8294L11.6822 12.1887V12.7285L11.5067 12.5529C11.3805 12.4267 11.1764 12.4267 11.0503 12.5529C10.9241 12.6791 10.9241 12.8831 11.0503 13.0093L11.6822 13.6412V15.3615C11.5198 15.3988 11.3684 15.4624 11.2324 15.548L10.0157 14.3313V13.4372C10.0157 13.2583 9.87091 13.1146 9.69318 13.1146C9.51545 13.1146 9.37063 13.2594 9.37063 13.4372V13.6851L8.98885 13.3033V11.3812C8.98885 11.2024 8.84403 11.0587 8.6663 11.0587C8.48857 11.0587 8.34376 11.2035 8.34376 11.3812V12.6571L7.86762 12.181L7.35418 11.6676C7.22801 11.5414 7.02395 11.5414 6.89779 11.6676C6.77162 11.7937 6.77162 11.9978 6.89779 12.124L7.41123 12.6374L7.88736 13.1135H6.61144C6.43262 13.1135 6.2889 13.2583 6.2889 13.4361C6.2889 13.6138 6.43372 13.7586 6.61144 13.7586H8.53355L8.91534 14.1404H8.6674C8.48857 14.1404 8.34485 14.2852 8.34485 14.463C8.34485 14.6407 8.48967 14.7855 8.6674 14.7855H9.56153L10.7782 16.0022C10.6926 16.1382 10.6279 16.2896 10.5917 16.452H8.87146L8.23953 15.8201C8.11336 15.6939 7.90931 15.6939 7.78314 15.8201C7.65697 15.9462 7.65697 16.1503 7.78314 16.2764L7.95868 16.452H7.41891L6.05961 15.0927C5.93344 14.9665 5.72938 14.9665 5.60322 15.0927C5.47705 15.2189 5.47705 15.4229 5.60322 15.5491L6.50503 16.4509H5.10404C4.92521 16.4509 4.78149 16.5957 4.78149 16.7734C4.78149 16.9512 4.92631 17.096 5.10404 17.096H6.50503L5.60322 17.9978C5.47705 18.124 5.47705 18.328 5.60322 18.4542C5.66575 18.5178 5.74913 18.5485 5.83141 18.5485C5.91369 18.5485 5.99707 18.5167 6.05961 18.4542L7.41891 17.0949H7.95868L7.78314 17.2704C7.65697 17.3966 7.65697 17.6006 7.78314 17.7268C7.84567 17.7904 7.92905 17.8212 8.01134 17.8212C8.09362 17.8212 8.177 17.7893 8.23953 17.7268L8.87146 17.0949H10.5917C10.629 17.2573 10.6926 17.4086 10.7782 17.5447L9.56153 18.7614H8.6674C8.48857 18.7614 8.34485 18.9062 8.34485 19.0839C8.34485 19.2616 8.48967 19.4065 8.6674 19.4065H8.91534L8.53355 19.7882H6.61144C6.43262 19.7882 6.2889 19.9331 6.2889 20.1108C6.2889 20.2885 6.43372 20.4333 6.61144 20.4333H7.88736L7.41123 20.9095L6.89779 21.4229C6.77162 21.5491 6.77162 21.7531 6.89779 21.8793C6.96032 21.9429 7.0437 21.9737 7.12598 21.9737C7.20826 21.9737 7.29164 21.9418 7.35418 21.8793L7.86762 21.3659L8.34376 20.8897V22.1656C8.34376 22.3445 8.48857 22.4882 8.6663 22.4882C8.84403 22.4882 8.98885 22.3434 8.98885 22.1656V20.2435L9.37063 19.8617V20.1097C9.37063 20.2885 9.51545 20.4322 9.69318 20.4322C9.87091 20.4322 10.0157 20.2874 10.0157 20.1097V19.2156L11.2324 17.9989C11.3684 18.0845 11.5198 18.1492 11.6822 18.1854V19.9056L11.0503 20.5376C10.9241 20.6637 10.9241 20.8678 11.0503 20.9939C11.1764 21.1201 11.3805 21.1201 11.5067 20.9939L11.6822 20.8184V21.3582L10.3229 22.7175C10.1967 22.8436 10.1967 23.0477 10.3229 23.1739C10.4491 23.3 10.6531 23.3 10.7793 23.1739L11.6811 22.2721V23.673C11.6811 23.8519 11.8259 23.9956 12.0037 23.9956C12.1814 23.9956 12.3262 23.8508 12.3262 23.673V22.2721L13.228 23.1739C13.2905 23.2375 13.3739 23.2682 13.4562 23.2682C13.5385 23.2682 13.6219 23.2364 13.6844 23.1739C13.8106 23.0477 13.8106 22.8436 13.6844 22.7175L12.3251 21.3582V20.8184L12.5006 20.9939C12.5632 21.0576 12.6466 21.0883 12.7288 21.0883C12.8111 21.0883 12.8945 21.0565 12.957 20.9939C13.0832 20.8678 13.0832 20.6637 12.957 20.5376L12.3251 19.9056V18.1854C12.4875 18.1481 12.6389 18.0845 12.7749 17.9989L13.9916 19.2156V20.1097C13.9916 20.2885 14.1364 20.4322 14.3141 20.4322C14.4919 20.4322 14.6367 20.2874 14.6367 20.1097V19.8617L15.0185 20.2435V22.1656C15.0185 22.3445 15.1633 22.4882 15.341 22.4882C15.5187 22.4882 15.6636 22.3434 15.6636 22.1656V20.8897L16.1397 21.3659L16.6531 21.8793C16.7157 21.9429 16.799 21.9737 16.8813 21.9737C16.9636 21.9737 17.047 21.9418 17.1095 21.8793C17.2357 21.7531 17.2357 21.5491 17.1095 21.4229L16.5961 20.9095L16.1199 20.4333H17.3959C17.5747 20.4333 17.7184 20.2885 17.7184 20.1108C17.7184 19.9331 17.5736 19.7882 17.3959 19.7882H15.4738L15.092 19.4065H15.3399C15.5187 19.4065 15.6625 19.2616 15.6625 19.0839C15.6625 18.9062 15.5176 18.7614 15.3399 18.7614H14.4458L13.2291 17.5447C13.3147 17.4086 13.3794 17.2573 13.4156 17.0949H15.1359L15.7678 17.7268C15.8303 17.7904 15.9137 17.8212 15.996 17.8212C16.0783 17.8212 16.1616 17.7893 16.2242 17.7268C16.3503 17.6006 16.3503 17.3966 16.2242 17.2704L16.0486 17.0949H16.5884L17.9477 18.4542C18.0102 18.5178 18.0936 18.5485 18.1759 18.5485C18.2582 18.5485 18.3416 18.5167 18.4041 18.4542C18.5303 18.328 18.5303 18.124 18.4041 17.9978L17.5023 17.096H18.9033C19.0821 17.096 19.2258 16.9512 19.2258 16.7734C19.2258 16.5957 19.081 16.4509 18.9033 16.4509Z" fill="url(#paint1_linear_45_1704)"/>
<defs>
<radialGradient id="paint0_radial_45_1704" cx="0" cy="0" r="1" gradientUnits="userSpaceOnUse" gradientTransform="translate(3.10012 15.0037) rotate(-41.76) scale(12.7261)">
<stop stop-color="white" stop-opacity="0"/>
<stop offset="0.95" stop-color="#757575" stop-opacity="0.32"/>
</radialGradient>
<linearGradient id="paint1_linear_45_1704" x1="6.77272" y1="27.2057" x2="17.6241" y2="5.54798" gradientUnits="userSpaceOnUse">
<stop offset="0.17" stop-color="#3F51B5" stop-opacity="0.4"/>
<stop offset="1" stop-color="#90CAF9" stop-opacity="0"/>
</linearGradient>
</defs>
</svg>
