<svg width="24" height="24" viewBox="0 0 24 24" fill="none" xmlns="http://www.w3.org/2000/svg">
<g clip-path="url(#clip0_45_769)">
<path d="M14.1176 12.068C15.1007 12.068 15.6613 13.1892 15.071 13.9758L12.5355 17.356C12.3413 17.6138 12.5256 17.9835 12.8493 17.9835H15.556C15.9049 17.9835 16.0804 18.4059 15.8336 18.6527L10.0263 23.9166C9.79585 24.147 9.42501 23.8584 9.59288 23.5787L11.7093 20.0559C11.8662 19.7948 11.6775 19.4624 11.3736 19.4624H8.44414C8.11499 19.4624 7.93287 19.0828 8.13804 18.8261L13.1861 12.5156C13.4121 12.2326 13.7555 12.068 14.1176 12.068Z" fill="#FFEE58"/>
<path opacity="0.4" d="M14.1176 12.068C15.1007 12.068 15.6613 13.1892 15.071 13.9758L12.5355 17.356C12.3413 17.6138 12.5256 17.9835 12.8493 17.9835H15.556C15.9049 17.9835 16.0804 18.4059 15.8336 18.6527L10.0263 23.9166C9.79585 24.147 9.42501 23.8584 9.59288 23.5787L11.7093 20.0559C11.8662 19.7948 11.6775 19.4624 11.3736 19.4624H8.44414C8.11499 19.4624 7.93287 19.0828 8.13804 18.8261L13.1861 12.5156C13.4121 12.2326 13.7555 12.068 14.1176 12.068Z" fill="url(#paint0_linear_45_769)"/>
<path d="M6.39461 16.8941C9.28565 16.8941 11.6292 14.5507 11.6292 11.6599C11.6292 8.76905 9.28565 6.42566 6.39461 6.42566C3.50358 6.42566 1.16003 8.76905 1.16003 11.6599C1.16003 14.5507 3.50358 16.8941 6.39461 16.8941Z" fill="white"/>
<path d="M13.7599 6.89526H6.39465V16.8953H13.7588V6.89526H13.7599Z" fill="white"/>
<path d="M14.393 16.8941C19.0582 16.8941 22.8401 13.1125 22.8401 8.44761C22.8401 3.78278 19.0582 0 14.393 0C9.72785 0 5.94592 3.78168 5.94592 8.44652C5.94592 13.1114 9.72785 16.893 14.393 16.893V16.8941Z" fill="white"/>
<path d="M6.39461 16.8941C9.28565 16.8941 11.6292 14.5507 11.6292 11.6599C11.6292 8.76905 9.28565 6.42566 6.39461 6.42566C3.50358 6.42566 1.16003 8.76905 1.16003 11.6599C1.16003 14.5507 3.50358 16.8941 6.39461 16.8941Z" fill="url(#paint1_radial_45_769)"/>
</g>
<defs>
<linearGradient id="paint0_linear_45_769" x1="8.05136" y1="18.034" x2="15.9488" y2="18.034" gradientUnits="userSpaceOnUse">
<stop stop-color="#FFFF00" stop-opacity="0.2"/>
<stop offset="0.13" stop-color="#FDEF0B" stop-opacity="0.4"/>
<stop offset="0.27" stop-color="#FDE015" stop-opacity="0.58"/>
<stop offset="0.41" stop-color="#FCD41E" stop-opacity="0.73"/>
<stop offset="0.55" stop-color="#FBCB24" stop-opacity="0.85"/>
<stop offset="0.68" stop-color="#FBC529" stop-opacity="0.93"/>
<stop offset="0.82" stop-color="#FBC12C" stop-opacity="0.98"/>
<stop offset="0.94" stop-color="#FBC02D"/>
</linearGradient>
<radialGradient id="paint1_radial_45_769" cx="0" cy="0" r="1" gradientUnits="userSpaceOnUse" gradientTransform="translate(3.10494 14.931) rotate(-41.7581) scale(12.7266 12.7265)">
<stop stop-color="white" stop-opacity="0"/>
<stop offset="0.95" stop-color="#757575" stop-opacity="0.32"/>
</radialGradient>
<clipPath id="clip0_45_769">
<rect width="24" height="24" fill="white"/>
</clipPath>
</defs>
</svg>
